<svg width="274" height="274" viewBox="0 0 274 274" fill="none" xmlns="http://www.w3.org/2000/svg">
<path fill-rule="evenodd" clip-rule="evenodd" d="M155.664 227.159C182.125 227.159 205.346 207.476 192.305 180.741C179.264 154.007 227.719 154.87 241.953 136.393C259.311 113.859 254.284 18.2076 142.85 76.5216C125 85.8628 79.1559 66.9117 63.9493 76.3149C46.0496 87.3834 20.8658 110.048 46.0496 133.265C58.4547 144.701 13.9796 174.384 33.4588 200.972C52.4656 226.916 65.789 202.184 94.7267 207.476C123.664 212.767 136.012 227.159 155.664 227.159Z" fill="#64FCD9"/>
<path d="M124.952 180.648C124.952 180.648 131.045 177.782 133.319 175.788C135.594 173.795 138.421 168.841 138.421 168.841C138.421 168.841 169.483 191.273 189.737 188.073C194.403 187.336 203.496 184.234 204.076 178.769C205.659 163.846 183.752 160.032 188.537 152.464C191.458 147.845 200.532 154.72 200.532 154.72L238.168 173.232C238.168 173.232 225.166 205.283 193.613 206.567C154.798 208.147 124.952 180.648 124.952 180.648Z" fill="white"/>
<path fill-rule="evenodd" clip-rule="evenodd" d="M95.1127 55.1307C94.7595 54.992 92.8624 52.6692 90.454 52.2464C89.3596 52.0543 90.3529 53.4478 89.1485 53.4604C85.5613 53.4977 79.7317 52.8238 78.6517 53.4604C77.8491 53.932 79.6168 55.5796 78.6517 55.6552C69.5471 56.3689 55.6572 65.4596 52.6437 69.8699C51.6846 71.2735 59.4412 68.8922 58.2053 69.5861C56.8182 70.3649 55.2799 75.4644 54.3601 79.4029C53.7233 82.1151 53.3224 85.6055 53.1809 89.4026C53.063 92.6808 53.1101 93.2232 53.5818 95.0156C54.1242 97.0203 54.5488 97.6099 55.2799 97.3269C55.5393 97.2325 55.6572 96.8788 55.6572 96.2184C55.6572 95.6996 55.9402 94.143 56.294 92.7515L56.9072 90.2516L57.1666 91.2893C57.4968 92.4921 59.4307 96.2184 61.1759 98.9306C61.27 99.0745 61.675 98.8914 62.0402 98.0088C62.3729 97.2044 62.2379 95.9194 62.8032 94.5422C64.0909 91.4052 66.6194 87.3265 69.5471 84.0616C73.874 79.2364 75.3096 73.6522 79.3656 69.1696C86.9349 60.8042 96.435 55.6498 95.1127 55.1307Z" fill="white"/>
<path fill-rule="evenodd" clip-rule="evenodd" d="M58.3128 70.7243C57.0986 71.7007 55.2962 79.6205 55.2653 79.7529C54.6285 82.465 54.0147 91.8834 54.6421 93.6666C55.2696 95.4498 57.0264 89.0218 57.0264 89.0218C57.0264 89.0218 59.6819 95.9173 62.0283 97.8079C62.1285 97.8886 59.2393 89.2767 58.3128 84.2493C57.0898 77.6128 59.0039 70.1686 58.3128 70.7243Z" fill="#E7EAEE"/>
<path fill-rule="evenodd" clip-rule="evenodd" d="M103.57 209.428C105.835 208.933 109.655 207.208 111.117 206.618C112.58 206.028 117.037 199.735 118.641 192.636C119.796 187.4 120.386 179.948 119.726 178.698C119.628 178.52 119.271 175.131 120.221 176.238C122.332 178.698 124.838 182.559 132.744 175.64C134.897 173.755 137.751 171.323 137 169.173C134.897 163.156 125.782 151.042 124.393 150.124C122.731 149.027 114.334 149.959 101.837 146.271C87.6647 142.088 81.7632 129.77 76.2171 131.373C71.7319 132.67 60.9857 140.639 58.2887 145.685C45.5564 169.509 60.9857 186.203 64.4995 190.997L67.9112 192.471L68.0291 195.513L68.1942 197.424C68.5008 201.079 68.6188 201.409 70.2696 202.636C74.3969 205.772 82.5334 208.697 89.8916 209.734C93.3113 210.206 100.74 210.041 103.57 209.428Z" fill="white"/>
<path fill-rule="evenodd" clip-rule="evenodd" d="M69.2532 194.4L69.4182 196.31C69.7248 199.965 69.8428 200.296 71.4936 201.522C73.9284 203.372 77.7585 205.149 82.001 206.508C84.95 207.452 88.0983 208.195 91.1157 208.621C94.5354 209.092 101.964 208.927 104.794 208.314C106.193 208.011 94.6868 198.971 87.9081 201.522C82.7025 203.481 70.4329 188.539 75.4216 184.635C81.0177 180.256 70.7631 162.985 70.4329 159.235C70.1027 155.485 68.8025 154.589 68.7645 154.721C68.7266 154.852 68.7266 155.301 68.8286 156.382C69.2686 161.041 69.2532 194.4 69.2532 194.4Z" fill="#E7EAEE"/>
<path fill-rule="evenodd" clip-rule="evenodd" d="M68.0244 158.164C68.5195 158.068 68.999 158.391 69.0954 158.886C70.8754 168.031 78.4044 174.222 91.8675 177.459C105.411 180.716 114.635 180.54 119.496 177.064C119.906 176.771 119.6 179.284 119.3 179.476C116.13 181.509 105.351 184.543 92.4887 181.801C76.0426 178.296 68.3206 164.467 67.3024 159.235C67.206 158.74 67.5293 158.261 68.0244 158.164Z" fill="#FFB61D"/>
<path fill-rule="evenodd" clip-rule="evenodd" d="M61.1662 141.665C61.604 141.415 77.9387 160.136 100.355 164.373C122.772 168.611 128.2 165.916 129.072 160.136C129.147 159.637 129.613 159.294 130.112 159.369C130.61 159.444 130.954 159.91 130.878 160.409C129.773 167.734 119.4 169.476 100.048 166.174C80.9395 162.913 67.8385 155.166 60.827 142.912C60.5765 142.474 60.7284 141.916 61.1662 141.665Z" fill="#FFB61D"/>
<path fill-rule="evenodd" clip-rule="evenodd" d="M155.253 140.627C154.64 140.415 153.979 139.943 153.555 139.401L152.847 138.528L155.347 136.052C159.191 132.279 162.139 128.411 164.687 123.812C165.536 122.279 167.682 117.161 167.682 116.666C167.682 116.501 167.941 115.84 168.248 115.156C168.719 114.166 169.073 113.789 170.087 113.223C171.29 112.515 172.658 112.279 173.248 112.68C174.38 113.435 174.38 115.817 173.248 119.92C171.998 124.425 170.323 127.656 166.856 132.302C166.314 133.01 165.3 134.401 164.569 135.368C162.611 137.962 161.338 139.212 159.616 140.179C157.918 141.123 156.927 141.241 155.253 140.627ZM172.186 138.505L173.884 139.259C174.237 139.422 178.121 141.288 182.787 143.53C190.309 147.145 199.863 151.735 199.921 151.735C200.016 151.735 200.458 150.712 200.558 149.519C200.794 146.948 201.667 143.457 202.681 141.028C203.152 139.943 203.53 138.588 203.53 138.47C203.53 138.416 203.146 138.261 202.519 138.008C201.771 137.707 200.678 137.266 199.473 136.689C193.53 133.835 181.903 128.01 180.464 127.137C179.049 126.312 178.766 126.241 178.766 126.783C178.766 127.491 177.328 130.769 176.219 132.538C175.63 133.505 174.474 135.25 173.649 136.406L172.186 138.505ZM199.52 147.49C200.197 147.882 199.025 148.457 198.742 148.552C197.076 148.693 195.114 148.38 193.506 147.443C192.666 146.847 186.048 143.171 181.658 140.732C179.651 139.617 178.11 138.761 177.799 138.576C176.809 137.986 175.865 137.349 175.7 137.16C175.205 136.524 175.677 136.241 177.068 136.359C177.905 136.43 198.06 146.644 199.52 147.49ZM103.651 209.234C105.47 208.836 108.294 207.644 110.092 206.885L110.093 206.885C110.532 206.699 110.91 206.54 111.198 206.424C112.66 205.834 117.117 199.541 118.721 192.442C119.877 187.206 120.466 179.753 119.806 178.503C119.408 177.78 121.773 180.208 123.535 182.017L123.538 182.02L123.545 182.027C124.075 182.571 124.55 183.058 124.877 183.385C135.159 193.597 150.465 201.805 166.361 205.649C174.285 207.583 179.922 208.267 187.492 208.267C200.204 208.267 210.228 205.767 219.331 200.272C219.763 200.011 220.169 199.771 220.555 199.542C223.728 197.663 225.619 196.544 230.793 190.72C236.597 184.187 241.76 169.023 243.481 163.787C244.236 161.429 246.075 152.048 246.075 149.707C246.075 146.936 245.109 145.627 243.788 144.283C241.453 141.995 238.293 141.17 235.675 142.16L234.448 142.632L234.071 141.382C233.529 139.495 232.397 137.986 230.651 136.854C228.057 135.132 227.68 135.014 225.345 135.014C223.529 135.014 223.034 135.109 221.878 135.651L220.534 136.264L220.251 135.415C219.708 133.67 217.889 131.237 216.477 130.533C215.225 129.909 213.058 129.852 211.548 130.132C208.246 130.746 205.888 132.279 204.921 134.425C204.638 135.085 204.284 135.604 204.143 135.604C204.025 135.604 199.379 134.306 193.837 131.854C192.902 131.438 192.023 131.049 191.199 130.684C181.246 126.272 179.089 125.316 179.285 124.118C179.45 123.104 179.403 122.538 179.12 121.666C178.625 120.203 178.059 119.803 176.455 119.803C175.182 119.803 175.182 119.803 175.323 119.166C176.078 115.557 176.054 113.482 175.252 112.161C174.71 111.289 174.073 110.935 172.611 110.723C171.762 110.605 171.361 110.675 170.418 111.194C169.781 111.525 169.238 111.76 169.191 111.713C169.144 111.666 169.309 110.369 169.568 108.836C171.502 97.4919 170.008 87.718 165.079 77.341C165.032 77.2417 164.977 77.1243 164.915 76.9899C163.416 73.7728 157.391 60.8367 140.159 54.3094C139.379 54.0139 138.641 53.7283 137.932 53.4537L137.932 53.4537C132.062 51.1817 128.16 49.6712 118.745 49.6869C108.192 49.7045 104.618 51.1963 97.6605 54.3801C96.6935 54.8282 95.8445 55.0877 95.7737 54.9933C95.703 54.8754 95.2549 54.5924 94.8068 54.3566C94.3587 54.1207 93.3917 53.5311 92.6842 53.0594C90.656 51.6915 89.406 51.1255 88.7692 51.267C88.0381 51.4557 88.0381 52.0689 88.7692 52.3519C89.0758 52.4698 89.4296 52.8708 89.5711 53.2717C89.8777 54.1207 90.2315 54.2151 90.4437 53.5075C90.538 53.2481 90.6796 53.0594 90.7503 53.1066C90.7771 53.12 90.8668 53.162 91.0036 53.226L91.004 53.2262C91.3487 53.3876 91.9923 53.6889 92.6842 54.0264C93.6511 54.4981 94.7124 54.9933 94.9954 55.1112C95.5143 55.2999 95.3492 55.4414 93.1087 56.7621C84.359 61.9035 77.2366 69.8985 73.2509 79.002C72.6377 80.3699 72.0952 81.2189 71.5292 81.6906C70.0906 82.8934 67.2605 86.3131 66.6001 87.6574C66.2464 88.3885 65.4917 89.5205 64.9021 90.1809C64.3361 90.8412 63.7229 91.6903 63.5106 92.044C63.322 92.4214 63.1333 92.6808 63.0625 92.6336C63.0154 92.5629 63.0861 91.4072 63.2512 90.0629C63.605 86.9263 63.605 86.1008 63.322 86.0301C62.8974 85.9121 62.2842 87.563 62.0248 89.6148C61.8362 90.8648 61.789 92.7515 61.9069 94.6854L62.0484 97.7514L60.3739 95.0392C59.7972 94.1308 59.2292 93.2224 58.8264 92.5781L58.8262 92.5778C58.5703 92.1684 58.381 91.8657 58.2985 91.7374C57.6853 90.8412 57.3316 89.4969 57.591 89.0488C57.7325 88.7894 57.7089 88.6715 57.4731 88.6715C56.9778 88.6715 56.0109 90.2516 55.3741 92.0676C55.0675 92.9166 54.7609 93.6241 54.6666 93.6241C54.3128 93.6241 54.4779 85.181 54.8552 82.4688C55.6335 77.1153 57.6853 70.5117 58.6051 70.5117C58.7938 70.5117 58.9589 70.4174 58.9589 70.2759C58.9589 69.8513 58.3457 70.0164 57.8504 70.5589C56.742 71.7617 55.2798 75.4644 54.36 79.4029C53.7232 82.1151 53.3223 85.6055 53.1808 89.4026C53.0629 92.6808 53.11 93.2232 53.5817 95.0156C54.1241 97.0203 54.5487 97.6099 55.2798 97.3269C55.5392 97.2325 55.6571 96.8788 55.6571 96.2184C55.6571 95.6996 55.9401 94.143 56.2939 92.7515L56.9071 90.2516L57.1665 91.2893C57.4967 92.4921 59.4306 96.2184 61.1758 98.9306C62.3786 100.77 62.4022 100.888 62.8031 103.765C63.0154 105.393 63.6757 109.351 65.2087 115.439C66.5632 120.819 74.1777 126.156 76.0789 127.488C76.3294 127.664 76.4808 127.77 76.5055 127.798C76.7413 128.057 77.0715 128.199 77.2602 128.128C77.4724 128.057 77.5904 128.151 77.5904 128.411C77.5904 128.647 77.7554 128.953 77.9441 129.095C78.18 129.26 78.345 129.897 78.3922 131.005C78.5101 133.222 80.161 137.467 81.4346 138.859C82.26 139.755 83.9817 140.132 85.892 139.802C87.1419 139.613 87.4957 139.472 87.3778 139.189C87.307 139 87.7551 139.236 88.3683 139.708C95.5379 145.179 102.802 148.457 110.962 149.872C114.122 150.415 119.358 150.721 122.212 150.509C124.041 150.389 124.544 150.356 124.638 150.536C124.673 150.604 124.65 150.703 124.617 150.839C124.452 151.5 124.664 151.901 128.131 157.773C130.891 162.419 131.126 162.726 134.192 165.862C140.702 172.584 147.8 177.796 155.843 181.829C163.413 185.602 175.5 188.739 186.549 189.73C197.598 190.72 205.534 180.579 205.511 177.985C205.464 174.423 204.968 172.089 203.765 169.825C202.586 167.631 201.808 166.876 198.27 164.518C194.332 161.9 191.903 159.754 190.299 157.466C189.285 156.028 188.907 154.4 188.907 153.528C188.907 152.962 189.639 151.688 190.723 151.429C191.714 151.169 191.903 151.193 193.011 151.735C193.671 152.042 195.393 152.844 196.808 153.528C198.247 154.188 199.638 154.849 199.921 154.99C200.756 155.222 201.108 156.855 201.3 157.74C201.342 157.938 201.377 158.098 201.407 158.198C201.737 159.424 203.3 161.007 204.308 161.546C206.078 162.493 210.44 162.62 211.643 161.323C211.95 160.992 212.966 160.586 213.176 160.709C213.385 160.832 214.143 161.853 214.143 162.679C214.166 164.094 214.897 165.391 216.454 166.688C219.402 169.141 221.689 169.73 224.001 168.645C225.203 168.079 226.189 167.858 226.189 167.858C226.189 167.858 227.172 169.113 227.232 169.541C227.695 172.892 232.656 174.297 233.977 174.439C234.279 174.469 234.868 174.339 235.467 174.208C236.267 174.032 237.083 173.852 237.255 174.046C237.592 174.426 231.618 184.305 230.793 185.555C222.939 197.347 207.657 204.564 188.955 205.319C176.809 205.814 161.88 202.418 148.932 196.239C140.654 192.253 133.32 187.371 125.466 180.532C124.098 179.353 122.518 178.008 121.952 177.537C121.386 177.088 120.042 175.555 119.004 174.14C117.259 171.782 116.268 170.933 116.268 171.735C116.268 172.089 117.4 174.258 118.698 176.404C119.216 177.254 119.547 177.843 119.429 177.749C119.311 177.654 118.933 179.353 118.58 181.522C117.424 188.48 115.514 195.343 113.58 199.611C112.518 201.923 110.484 203.649 109.87 204.12C107.606 205.842 104.217 206.616 99.5236 207.087C93.5804 207.677 84.8307 206.356 78.1564 203.856C76.3876 203.196 71.8358 201.286 71.5292 201.073C71.5108 201.055 71.4063 200.377 71.2605 199.43C71.2194 199.163 71.175 198.874 71.1283 198.574C70.2793 192.748 69.1001 170.32 69.1001 159.943C69.1001 155.65 69.0529 154.707 68.7699 154.707C68.1803 154.707 67.9444 155.273 67.685 157.301C67.0954 161.924 67.2133 186.05 67.8501 191.121L67.9916 192.277L67.1897 191.829C65.9634 191.121 61.2937 186.381 59.6664 184.187C58.2888 182.312 57.47 179.911 56.8574 178.114C56.7149 177.696 56.5836 177.311 56.459 176.973C53.0393 167.492 54.2421 156.853 58.9589 147.278C62.9682 139.118 67.8973 134.59 75.114 132.396C76.2932 132.043 77.3309 131.665 77.4489 131.571C77.8969 131.147 75.0197 131.359 73.4395 131.854C68.2982 133.434 62.921 137.75 59.2655 143.269C54.1241 151.004 51.8129 162.419 53.4402 172.159C53.8175 174.471 55.3505 179.47 55.775 179.824C55.8126 179.862 56.0066 180.269 56.2999 180.884C57.1111 182.586 58.6821 185.882 59.8079 187.371C61.1758 189.234 65.303 193.291 67.0247 194.541L68.1095 195.319L68.2746 197.229C68.5812 200.885 68.6991 201.215 70.35 202.441C74.4772 205.578 82.6138 208.502 89.972 209.54C93.3917 210.012 100.821 209.847 103.651 209.234ZM183.365 187.088C169.663 185.885 153.107 179.352 141.126 169.258C136.079 164.989 129.523 156.688 126.928 152.089C126.386 151.146 125.985 150.698 125.513 150.58C125.018 150.438 125.443 150.297 127.471 149.967C136.032 148.504 144.357 144.943 151.079 139.873L152.069 139.142L152.352 139.825C152.989 141.358 155.442 142.915 157.258 142.915C157.989 142.915 160.441 141.807 161.927 140.792L162.941 140.108L163.767 140.934C164.521 141.689 164.663 141.736 166.078 141.736C167.705 141.736 169.663 141.005 170.748 139.967L171.337 139.425L173.012 140.533C173.908 141.17 176.408 142.561 178.554 143.67C181.761 145.321 185.158 147.231 188.389 149.212L188.907 149.542L188.412 150.202C187.893 150.91 186.927 152.254 186.927 154.306C186.927 156.617 189.33 160.77 193.931 163.622C197.545 165.862 203.765 170.269 203.53 176.711C203.501 177.489 202.633 179.423 201.478 181.168C200.723 182.277 198.624 183.928 196.714 184.895C193.459 186.522 187.728 187.465 183.365 187.088ZM57.6146 81.2189C58.2514 81.3604 58.6759 81.5727 58.5815 81.667C58.2749 81.9736 56.6476 81.8321 56.2703 81.4547C55.6807 80.8887 55.8222 80.4878 56.6476 80.3227C57.0722 80.2519 57.7089 79.8982 58.0627 79.5444C58.4165 79.1907 58.723 79.0256 58.723 79.1435C58.723 79.4501 57.5438 80.535 56.9542 80.7708C56.5769 80.9359 56.6948 81.0066 57.6146 81.2189ZM67.0011 81.5962C67.685 81.2189 67.5435 80.9595 66.7417 81.0774C65.9398 81.1953 65.8926 81.101 66.4115 80.2991C66.6237 79.9925 66.7417 79.5444 66.6945 79.3086C66.6237 79.002 66.4586 79.1435 66.0813 79.8982C65.7983 80.4406 65.3974 80.8887 65.2087 80.8887C64.6191 80.8887 64.5719 81.3604 65.1379 81.5727C65.869 81.8792 66.4351 81.8792 67.0011 81.5962ZM58.841 68.7193C58.2749 68.8136 56.5061 69.5212 54.9496 70.2994C53.3694 71.0541 52.0251 71.6909 51.9308 71.6673C49.5252 71.4079 52.8742 67.3986 58.9589 63.2949C64.7842 59.3564 68.7227 57.281 72.3783 56.2197C74.6659 55.5593 77.2366 55.465 77.9677 56.0074C78.3686 56.314 78.2271 56.3376 76.4819 56.3612C72.7084 56.3612 68.3454 58.2951 61.2465 63.0355C57.5674 65.4883 53.2987 69.0023 53.2987 69.5683C53.2987 69.6862 53.9826 69.4504 54.8317 69.0731C56.6476 68.2476 58.5108 67.8231 59.3362 68.0118C60.2088 68.2476 60.0202 68.5542 58.841 68.7193ZM67.968 70.7475C70.1849 70.2994 70.2793 70.2759 70.2793 70.04C70.2793 69.9221 69.4302 69.8042 68.369 69.757L66.4586 69.6862L68.2275 67.6816C69.1944 66.5731 70.3264 65.4647 70.7274 65.2053C71.6 64.6392 71.6472 64.2383 70.9396 64.0025L70.3972 63.8374L70.9868 63.6251C71.317 63.5072 71.9302 63.46 72.3547 63.5308C72.9914 63.6251 73.133 63.578 73.0622 63.2478C72.9914 62.9176 72.732 62.8468 71.5764 62.8704C68.2039 62.9176 66.7652 63.8138 69.4067 64.2383C70.1378 64.3562 70.751 64.5449 70.751 64.6628C70.751 64.7572 70.633 64.8515 70.4915 64.8515C70.0434 64.8515 66.2464 68.6957 65.7747 69.6391C65.0436 71.0305 65.4445 71.2428 67.968 70.7475ZM83.5336 61.5969C82.8496 61.6441 82.6845 61.762 82.7317 62.0922L82.739 62.1402C82.7654 62.3146 82.7807 62.4149 82.7416 62.4453C82.6888 62.4864 82.537 62.4003 82.1804 62.198L82.1804 62.198L82.1185 62.1629C81.6704 61.9271 81.6232 61.8091 81.8827 61.6205C82.0478 61.479 82.4959 61.2667 82.8496 61.196L83.51 61.0309L83.0147 60.512C82.7553 60.2054 82.6138 59.9224 82.6845 59.8281C82.8732 59.6394 85.1844 59.8988 85.5146 60.1583C85.6561 60.2762 85.8684 60.2526 86.0099 60.1111C86.3401 59.7809 86.7882 60.0403 86.7882 60.5592C86.7882 60.8422 86.7174 60.8658 86.5052 60.6535C86.3165 60.4648 86.1514 60.4648 85.9391 60.6299C85.7505 60.795 85.609 60.795 85.491 60.6064C85.4203 60.4884 84.9722 60.3705 84.5005 60.3705C84.0654 60.3705 83.8596 60.3705 83.8176 60.4534C83.7799 60.5278 83.874 60.6689 84.0524 60.9365C84.4286 61.5243 84.4063 61.5261 83.5416 61.5962L83.5336 61.5969ZM79.9488 55.3235C79.9488 55.0169 79.6658 54.4745 79.312 54.1207L78.6516 53.4604L82.1893 53.6019C84.1467 53.6962 86.3637 53.9085 87.1419 54.1207C87.9202 54.3094 88.8164 54.4509 89.1466 54.4509C89.6419 54.4509 89.5475 54.3566 88.6277 53.8613C87.024 53.0358 84.9722 52.6349 81.0336 52.3519C76.3168 52.0217 73.9348 52.4698 74.3829 53.649C74.4537 53.8849 74.831 54.0028 75.397 54.0028C76.5527 54.0028 78.4394 54.6867 79.0762 55.3235C79.7601 56.0074 79.9488 56.0074 79.9488 55.3235ZM68.4397 117.774C70.35 120.227 72.8735 123.01 74.0527 123.953C74.7603 124.519 75.3734 124.991 75.4206 124.991C75.4442 124.991 74.9253 123.906 74.265 122.585C71.6 117.279 70.0434 111.996 69.3123 105.911C69.1472 104.567 68.8878 103.435 68.6048 102.963C68.0388 102.02 68.0388 100.794 68.6284 99.6381C68.935 99.0249 69.1001 98.2466 69.1001 97.3976V96.1005L67.968 97.2797C66.8596 98.4353 65.7983 98.907 65.7983 98.1995C65.7983 97.6806 67.5435 95.1807 68.4633 94.4024C69.1944 93.7892 69.2887 93.577 69.5246 91.7374C69.6897 90.629 70.067 88.6715 70.3736 87.3744C70.7038 86.0772 70.8925 84.9688 70.8453 84.9216C70.6802 84.7565 65.1379 91.1218 64.3832 93.1525C64.2175 93.5983 63.77 94.3788 63.4163 94.8505L62.8031 95.6378C62.8031 95.6378 62.9936 96.7403 63.204 98.1258C63.4167 99.5256 63.5164 100.488 63.6053 101.345C63.7242 102.492 63.8235 103.45 64.1474 105.015C64.5247 106.949 64.9021 108.624 64.9964 108.742C65.0672 108.883 65.3738 109.968 65.6804 111.171C66.3407 113.836 67.4492 116.477 68.4397 117.774ZM164.144 140.085L163.649 139.59C163.649 139.59 171.869 129.146 173.342 125.298C174.466 122.361 175.128 121.528 176.02 121.528C176.519 121.528 176.927 121.642 177.115 121.925C177.446 122.42 177.764 123.034 177.339 125.133C176.632 128.529 175.547 130.769 172.292 135.604C171.538 136.712 170.571 137.939 170.146 138.363C169.156 139.283 166.927 140.226 165.63 140.439C164.805 140.557 164.569 140.509 164.144 140.085Z" fill="#00160A"/>
<path d="M229.449 163.156C232.383 155.162 231.939 153.459 231.43 153.292C231.43 153.292 230.309 153.929 229.814 155.273C228.894 157.797 225.746 164.4 224.567 165.579C223.175 166.971 223.175 166.971 221.76 166.971C220.345 166.971 216.264 164.84 215.708 162.739C214.819 159.378 218.647 147.703 218.741 147.042L218.105 146.594C217.68 146.995 212.158 163.74 204.898 159.377C204.066 158.877 202.303 156.523 202.162 155.273C201.376 151.641 204.982 138.941 205.595 136.332C206.144 133.998 209.001 131.83 212.515 131.83C217.916 131.83 217.191 136.551 219.61 138.215C220.682 138.952 222.443 137.616 222.987 137.514C226.029 136.948 227.195 137.607 229.425 139.377C231.147 140.744 232.42 143.448 233.822 144.401C234.601 144.93 235.428 144.207 235.698 144.071C236.808 143.514 239.189 143.929 239.849 144.401C240.817 144.823 243.19 147.103 243.564 148.43C245.263 154.441 239.899 167.767 237.874 170.267C234.523 174.405 226.514 171.151 229.449 163.156Z" fill="white"/>
<path fill-rule="evenodd" clip-rule="evenodd" d="M93.8635 141.251C100.326 145.331 106.989 147.996 114.583 148.727C120.573 149.293 128.65 148.515 134.452 146.628C139.334 145.048 145.937 140.671 150.348 136.968C158.909 129.799 164.309 118.6 166.668 106.713C166.998 105.039 167.501 100.83 167.478 96.6554C167.478 91.797 165.34 78.5206 158.861 70.8655C145.5 55.0767 123.536 47.9644 105.077 54.0414C98.4185 56.2336 91.3289 60.2054 85.9753 65.3939C79.2302 71.9739 74.2539 80.9359 72.2729 90.0865C70.1975 99.756 72.8972 111.312 77.5904 120.793C81.3403 128.34 87.5194 137.218 93.8635 141.251ZM156.833 112.751C152.399 126.076 140.843 136.028 126.315 139.047C124.098 139.495 122.565 139.66 119.452 139.708C117.259 139.778 115.066 139.755 114.618 139.708C104.453 138.481 96.7172 134.731 89.5948 127.609C86.4817 124.472 85.1609 122.774 83.227 119.425C80.1847 114.119 78.5574 108.694 78.0621 102.162C76.3641 79.7803 92.3777 61.1252 114.924 59.1913C123.768 58.4366 133.579 61.1488 141.032 66.4316C143.791 68.3891 148.791 73.3418 150.348 75.653C150.984 76.5728 157.163 85.6055 158.248 90.7941C159.64 97.5391 159.097 105.982 156.833 112.751Z" fill="white"/>
<path fill-rule="evenodd" clip-rule="evenodd" d="M167.486 96.6554C167.486 112.485 159.998 129.792 150.335 137.183C145.724 140.709 139.699 144.979 134.452 146.628C126.762 149.046 114.583 148.727 114.583 148.727C114.583 148.727 127.008 147.066 131.613 145.213C144.817 139.899 152.025 131.742 156.476 123.915C165.262 108.466 167.486 96.2708 167.486 96.6554Z" fill="#E7EAEE"/>
<path fill-rule="evenodd" clip-rule="evenodd" d="M114.853 136.877C108.556 136.076 102.307 133.835 97.2596 130.51C94.2644 128.552 89.7362 123.953 87.5429 120.675C84.4062 115.958 82.3308 110.911 81.3167 105.487C80.5856 101.548 80.6092 95.4873 81.3403 91.9733C82.095 88.3885 83.0619 85.6527 84.7836 82.1858C86.7882 78.1765 88.9108 75.2285 92.0947 72.0447C97.519 66.6203 103.816 63.177 111.316 61.5261C113.745 61.0073 122.542 60.5828 122.848 60.9837C122.919 61.1016 123.391 61.4082 123.886 61.6676C124.381 61.9507 125.702 62.9412 126.787 63.9081C128.414 65.3232 129.145 66.2194 130.56 68.4363C131.527 69.9457 132.306 71.3136 132.306 71.4315C132.306 71.6909 133.06 72.1626 133.485 72.1626C134.074 72.1626 134.475 70.3938 134.593 67.2807C134.664 65.559 134.806 64.144 134.9 64.144C135.23 64.144 138.862 66.1486 140.56 67.2807C143.885 69.4976 147.211 72.6107 149.664 75.8653C150.772 77.3275 150.937 77.7049 150.937 78.6011C150.937 79.4265 151.173 80.0633 151.904 81.3368C153.744 84.5443 155.182 88.5771 156.055 93.0345C156.621 96.0297 156.621 101.69 156.031 104.827C154.428 113.458 149.664 122.043 143.461 127.491C138.202 132.09 132.612 134.92 126.009 136.311C123.745 136.807 116.952 137.137 114.853 136.877ZM97.9907 120.746C98.203 120.51 98.3445 120.156 98.2737 119.991C98.2525 119.942 97.9572 119.803 97.5249 119.6C96.5173 119.126 94.7655 118.302 94.0063 117.444C90.9875 114.001 89.8791 111.43 89.1951 106.124C88.5348 100.959 89.0895 97.4671 90.28 91.8553C90.8607 89.1178 92.4043 86.8566 93.3646 85.4497C94.0175 84.4932 94.4008 83.9316 94.0286 83.8839C93.1088 83.7424 92.9673 83.8131 92.0003 84.7329C89.9249 86.714 88.9816 88.2941 87.991 91.3365C86.4581 96.1005 86.1618 108.975 89.1951 114.779C92.2285 120.583 97.4483 121.359 97.9907 120.746ZM131.527 100.935C131.127 104.599 129.428 109.897 127.447 112.208C126.528 113.293 123.151 115.156 120.301 114.779C117.549 114.415 115.396 113.128 113.556 110.369C111.976 107.987 111.16 105.096 110.608 101.454C109.655 95.166 113.816 87.846 115.608 86.0301C117.424 84.1669 118.721 83.5066 120.372 83.483C121.976 83.483 123.013 83.8367 124.641 84.9924C127.612 87.0678 132.306 93.8159 131.527 100.935ZM99.7359 81.4312C100.208 80.8887 100.278 80.6293 100.137 79.6152C100.043 78.6718 99.8538 78.2945 99.3586 77.8935C98.486 77.186 97.4011 77.186 96.5992 77.9407C96.0332 78.4831 95.9625 78.6718 96.0332 79.9689C96.104 81.3604 96.1511 81.4547 96.9294 81.8792C97.9671 82.4453 98.9812 82.2802 99.7359 81.4312ZM114.452 66.8797C110.207 69.9221 108.368 71.172 106.457 72.3513C104.948 73.2946 104.476 73.3182 104.476 72.4692C104.476 72.0211 104.807 71.5258 105.656 70.7475L106.835 69.6627L104.547 69.3561C101.976 69.0259 99.4765 68.3184 98.9341 67.7759C98.0379 66.8562 98.8161 66.6439 101.363 67.1156C102.495 67.3043 104.689 67.5401 106.245 67.5873L109.075 67.7052L111.127 66.2194C115.632 62.9648 120.301 61.1252 122.542 61.6912C123.933 62.0214 123.768 62.3987 122.188 62.5874C120.372 62.7997 119.264 63.4129 114.452 66.8797Z" fill="white"/>
<path d="M120.513 111.548C120.513 111.43 120.655 111.312 120.844 111.312C121.032 111.312 121.268 111.43 121.339 111.548C121.41 111.69 121.268 111.784 121.009 111.784C120.726 111.784 120.513 111.69 120.513 111.548Z" fill="white"/>
<path d="M121.928 111.336C121.928 111.076 122.518 110.841 123.178 110.841C123.697 110.864 123.697 110.864 123.249 111.194C122.73 111.595 121.928 111.666 121.928 111.336Z" fill="white"/>
<path d="M118.273 110.723C118.202 110.534 118.108 110.204 118.037 110.015C117.966 109.779 118.084 109.661 118.391 109.661C118.65 109.661 118.863 109.803 118.863 109.992C118.863 110.18 118.933 110.487 119.004 110.699C119.099 110.958 119.028 111.076 118.768 111.076C118.556 111.076 118.32 110.911 118.273 110.723Z" fill="white"/>
<path d="M119.523 110.133C119.405 109.426 119.664 109.19 120.514 109.19C120.773 109.19 120.985 109.426 121.08 109.826C121.268 110.51 120.962 110.841 120.136 110.841C119.759 110.841 119.594 110.675 119.523 110.133Z" fill="white"/>
<path d="M117.117 110.251C116.669 109.897 116.669 109.897 117.164 109.897C117.471 109.897 117.683 110.039 117.683 110.251C117.683 110.675 117.683 110.675 117.117 110.251Z" fill="white"/>
<path d="M121.858 110.227C121.551 109.921 121.693 109.001 122.07 108.86C122.754 108.6 123.061 108.718 123.202 109.331C123.296 109.685 123.344 109.992 123.296 110.015C123.108 110.227 121.999 110.369 121.858 110.227Z" fill="white"/>
<path d="M123.957 109.732C123.886 109.661 123.815 109.355 123.815 109.072C123.815 108.671 124.004 108.506 124.57 108.388C125.065 108.293 125.372 108.341 125.513 108.529C125.749 108.907 125.749 109.378 125.537 109.496C125.112 109.732 124.122 109.874 123.957 109.732Z" fill="white"/>
<path d="M116.032 109.001C116.032 108.718 116.245 108.482 116.551 108.411C117.165 108.246 117.141 108.223 117.259 108.836C117.306 109.19 117.188 109.331 116.693 109.378C116.174 109.449 116.032 109.355 116.032 109.001Z" fill="white"/>
<path d="M117.825 109.025C117.495 108.671 117.707 108.01 118.155 108.01C118.462 108.01 118.627 108.176 118.627 108.459C118.627 108.907 118.084 109.284 117.825 109.025Z" fill="white"/>
<path d="M119.24 108.317C119.051 107.869 119.452 107.539 120.231 107.539C120.584 107.539 120.749 107.68 120.749 107.987C120.749 108.246 120.537 108.482 120.231 108.576C119.452 108.765 119.405 108.765 119.24 108.317Z" fill="white"/>
<path d="M126.056 108.246C126.127 108.128 126.244 108.01 126.315 108.01C126.386 108.01 126.362 108.128 126.292 108.246C126.221 108.388 126.103 108.482 126.032 108.482C125.961 108.482 125.985 108.388 126.056 108.246Z" fill="white"/>
<path d="M121.362 107.845C121.174 107.374 121.41 107.138 122.164 107.02C122.589 106.973 122.777 107.067 122.825 107.397C122.99 108.176 121.645 108.6 121.362 107.845Z" fill="white"/>
<path d="M115.702 107.444C115.49 106.666 115.537 106.595 116.15 106.595C116.481 106.595 116.74 106.69 116.74 106.808C116.74 106.926 116.811 107.185 116.882 107.374C116.952 107.61 116.811 107.751 116.41 107.822C115.962 107.916 115.797 107.822 115.702 107.444Z" fill="white"/>
<path d="M123.579 107.185C123.579 106.761 123.744 106.572 124.193 106.454C124.853 106.289 125.23 106.619 125.23 107.374C125.23 107.68 125.042 107.775 124.405 107.775C123.674 107.775 123.579 107.704 123.579 107.185Z" fill="white"/>
<path d="M114.995 107.185C114.924 106.996 114.971 106.831 115.089 106.831C115.231 106.831 115.325 106.996 115.325 107.185C115.325 107.374 115.278 107.539 115.231 107.539C115.184 107.539 115.089 107.374 114.995 107.185Z" fill="white"/>
<path d="M117.377 107.374C117.047 107.067 117.235 106.407 117.66 106.289C117.919 106.218 118.179 106.242 118.25 106.312C118.533 106.572 118.367 107.256 118.014 107.397C117.566 107.562 117.566 107.562 117.377 107.374Z" fill="white"/>
<path d="M125.796 107.209C125.537 106.525 125.82 106.006 126.48 105.935C126.976 105.864 127.117 105.959 127.117 106.336C127.117 107.114 126.858 107.539 126.386 107.539C126.127 107.539 125.867 107.397 125.796 107.209Z" fill="white"/>
<path d="M119.028 106.902C118.745 106.643 118.839 106.171 119.24 106.029C119.688 105.864 120.631 106.336 120.372 106.595C120.042 106.878 119.193 107.091 119.028 106.902Z" fill="white"/>
<path d="M121.08 106.312C120.867 105.982 121.622 105.416 122.235 105.416C122.518 105.416 122.636 105.558 122.589 105.817C122.495 106.289 121.292 106.666 121.08 106.312Z" fill="white"/>
<path d="M114.617 106.147C114.617 106.029 114.547 105.77 114.476 105.558C114.405 105.345 114.429 105.18 114.57 105.18C114.877 105.18 115.113 106.077 114.83 106.265C114.712 106.336 114.617 106.289 114.617 106.147Z" fill="white"/>
<path d="M115.254 105.605C115.113 105.086 115.396 104.709 115.938 104.709C116.245 104.709 116.551 105.628 116.363 105.935C116.103 106.336 115.372 106.1 115.254 105.605Z" fill="white"/>
<path d="M116.905 105.723C116.551 105.369 116.764 104.52 117.235 104.402C117.589 104.308 117.778 104.426 117.966 104.85C118.108 105.157 118.179 105.463 118.132 105.511C117.896 105.723 117.047 105.888 116.905 105.723Z" fill="white"/>
<path d="M123.273 105.723C122.966 105.416 123.108 105.228 123.815 104.968C124.405 104.779 124.57 104.803 124.688 105.086C124.9 105.652 123.721 106.194 123.273 105.723Z" fill="white"/>
<path d="M125.348 105.18C125.112 104.803 125.443 104.473 126.056 104.473C126.787 104.473 126.999 105.086 126.339 105.275C125.631 105.463 125.513 105.44 125.348 105.18Z" fill="white"/>
<path d="M127.353 104.614C127.353 104.261 127.777 103.883 127.966 104.072C128.131 104.237 127.801 104.945 127.565 104.945C127.447 104.945 127.353 104.803 127.353 104.614Z" fill="white"/>
<path d="M114.311 104.308C114.217 104.237 114.146 103.93 114.169 103.671C114.169 103.223 114.193 103.223 114.405 103.742C114.641 104.308 114.594 104.591 114.311 104.308Z" fill="white"/>
<path d="M114.759 103.954C114.547 103.129 114.57 103.058 115.184 103.058C115.867 103.058 116.292 103.93 115.773 104.261C115.231 104.591 114.924 104.496 114.759 103.954Z" fill="white"/>
<path d="M122.872 104.426C122.872 104.355 122.99 103.978 123.131 103.553C123.461 102.61 124.193 102.563 124.358 103.482C124.428 103.836 124.452 104.143 124.428 104.166C124.31 104.308 122.872 104.52 122.872 104.426Z" fill="white"/>
<path d="M116.433 103.836C116.339 103.765 116.268 103.482 116.268 103.223C116.268 102.846 116.339 102.822 116.622 103.058C116.811 103.223 116.976 103.506 116.976 103.671C116.976 104.025 116.693 104.119 116.433 103.836Z" fill="white"/>
<path d="M124.924 103.364C124.782 102.633 125.089 102.303 125.82 102.397C126.174 102.445 126.292 102.657 126.292 103.176C126.292 103.765 126.197 103.907 125.678 103.954C125.16 104.025 125.042 103.907 124.924 103.364Z" fill="white"/>
<path d="M127.235 103.459C126.928 102.515 127.023 102.232 127.66 102.162C128.226 102.091 128.296 102.162 128.296 102.775C128.296 103.294 128.155 103.506 127.801 103.6C127.542 103.671 127.282 103.6 127.235 103.459Z" fill="white"/>
<path d="M113.957 102.114C113.957 101.666 114.004 101.478 114.075 101.714C114.122 101.926 114.122 102.303 114.075 102.539C114.004 102.751 113.957 102.563 113.957 102.114Z" fill="white"/>
<path d="M114.547 102.421C114.24 102.138 114.382 101.218 114.759 101.077C115.301 100.864 115.561 101.124 115.561 101.902C115.561 102.397 115.443 102.586 115.136 102.586C114.9 102.586 114.617 102.515 114.547 102.421Z" fill="white"/>
<path d="M115.962 101.784C115.868 101.431 115.82 101.053 115.915 100.982C116.151 100.747 116.292 101.124 116.221 101.808L116.151 102.468L115.962 101.784Z" fill="white"/>
<path d="M123.579 101.619C123.579 101.36 123.697 101.218 123.815 101.289C123.957 101.36 124.051 101.596 124.051 101.784C124.051 101.973 123.957 102.114 123.815 102.114C123.697 102.114 123.579 101.902 123.579 101.619Z" fill="white"/>
<path d="M124.641 101.926C124.31 101.572 124.57 100.935 125.112 100.794C125.796 100.629 125.82 100.629 126.032 101.313C126.174 101.737 126.079 101.831 125.466 101.926C125.089 101.997 124.711 101.973 124.641 101.926Z" fill="white"/>
<path d="M126.811 101.478C126.551 101.242 126.622 100.464 126.881 100.464C127.023 100.464 127.117 100.369 127.117 100.228C127.117 100.11 126.976 99.9919 126.787 99.9919C126.386 99.9919 126.056 98.8362 126.386 98.5061C126.811 98.0816 127.282 98.5296 127.565 99.6853C127.73 100.298 127.895 101.006 127.966 101.242C128.06 101.548 127.966 101.643 127.518 101.643C127.211 101.643 126.881 101.572 126.811 101.478Z" fill="white"/>
<path d="M128.084 100.228C127.919 99.5202 127.494 98.1051 127.188 97.0674C126.716 95.558 126.669 95.1807 126.928 95.0156C127.093 94.8977 127.306 94.8034 127.376 94.8034C127.636 94.8034 128.579 99.6381 128.485 100.581L128.414 101.525L128.084 100.228Z" fill="white"/>
<path d="M113.721 100.11C113.721 99.7324 113.768 99.5909 113.839 99.8268C113.886 100.039 113.886 100.369 113.839 100.534C113.768 100.676 113.721 100.511 113.721 100.11Z" fill="white"/>
<path d="M114.193 100.063C114.287 99.2372 114.971 99.0485 115.16 99.8032C115.325 100.416 115.372 100.346 114.665 100.581C114.169 100.723 114.122 100.676 114.193 100.063Z" fill="white"/>
<path d="M124.145 99.8504C123.957 99.1664 124.358 98.7655 125.112 98.8598C125.678 98.9306 125.891 99.9447 125.419 100.251C124.829 100.629 124.287 100.464 124.145 99.8504Z" fill="white"/>
<path d="M115.561 99.6617C115.561 99.2608 115.679 99.0485 115.938 99.0485C116.174 99.0485 116.268 99.2136 116.221 99.5674C116.103 100.322 115.561 100.393 115.561 99.6617Z" fill="white"/>
<path d="M113.462 98.6712C113.462 98.4117 113.533 98.341 113.603 98.5296C113.674 98.6947 113.651 98.907 113.58 98.9777C113.509 99.0721 113.438 98.9306 113.462 98.6712Z" fill="white"/>
<path d="M113.91 98.6004C113.91 98.2466 114.051 98.1051 114.405 98.1051C114.735 98.1051 114.853 98.2231 114.806 98.5061C114.688 99.1193 113.91 99.19 113.91 98.6004Z" fill="white"/>
<path d="M115.207 98.3881C115.042 97.9636 115.042 97.9636 115.749 97.775C116.174 97.6335 116.268 97.7042 116.268 98.058C116.268 98.624 115.419 98.907 115.207 98.3881Z" fill="white"/>
<path d="M123.745 98.058C123.579 97.4684 123.886 97.1618 124.711 97.1618C125.112 97.1618 125.23 97.3033 125.23 97.7514C125.23 98.1051 125.089 98.341 124.9 98.341C124.711 98.341 124.405 98.4117 124.216 98.4825C124.004 98.5532 123.839 98.4117 123.745 98.058Z" fill="white"/>
<path d="M125.796 97.5155C125.608 97.0439 125.891 96.6901 126.433 96.6901C126.763 96.6901 126.881 96.8552 126.881 97.2797C126.881 97.7042 126.763 97.8693 126.409 97.8693C126.15 97.8693 125.867 97.7042 125.796 97.5155Z" fill="white"/>
<path d="M113.674 97.1854C113.674 96.6901 114.217 96.1241 114.452 96.3835C114.547 96.4542 114.617 96.7844 114.617 97.091C114.617 97.4684 114.476 97.6335 114.146 97.6335C113.839 97.6335 113.674 97.4684 113.674 97.1854Z" fill="white"/>
<path d="M114.971 96.9023C114.783 96.3127 114.995 96.0533 115.797 95.9354C116.528 95.8411 116.764 96.6193 116.127 97.091C115.514 97.5391 115.136 97.4684 114.971 96.9023Z" fill="white"/>
<path d="M123.509 96.7608C123.343 96.6193 123.273 95.7467 123.414 95.7467C123.438 95.7467 123.792 95.6524 124.216 95.5345C124.924 95.3222 124.971 95.3458 124.947 95.9826C124.924 96.4542 124.782 96.6901 124.428 96.7844C123.792 96.9495 123.697 96.9495 123.509 96.7608Z" fill="white"/>
<path d="M122.636 96.2184C122.636 96.0533 122.707 95.9826 122.801 96.0533C122.872 96.1477 122.872 96.2892 122.801 96.3835C122.707 96.4542 122.636 96.3835 122.636 96.2184Z" fill="white"/>
<path d="M125.278 95.8411C125.348 95.4401 126.079 94.8505 126.245 95.0392C126.315 95.1099 126.433 95.393 126.504 95.6995C126.669 96.1712 126.598 96.2184 125.938 96.2184C125.372 96.2184 125.207 96.1241 125.278 95.8411Z" fill="white"/>
<path d="M113.91 95.8175C113.91 95.6996 114.028 95.4637 114.146 95.275C114.334 94.992 114.382 95.0156 114.382 95.4637C114.382 95.7467 114.287 95.9826 114.146 95.9826C114.028 95.9826 113.91 95.9118 113.91 95.8175Z" fill="white"/>
<path d="M114.617 95.2986C114.617 94.6383 115.113 94.426 115.49 94.9213C115.726 95.275 115.726 95.393 115.49 95.558C114.995 95.8646 114.617 95.7703 114.617 95.2986Z" fill="white"/>
<path d="M121.787 94.992C121.362 94.5203 121.362 94.4968 121.763 94.6383C121.999 94.7326 122.306 94.8034 122.424 94.8034C122.542 94.8034 122.636 94.9684 122.636 95.1571C122.636 95.6524 122.306 95.6052 121.787 94.992Z" fill="white"/>
<path d="M116.717 94.9684C115.702 94.1902 115.561 92.4449 116.504 92.4449C117.141 92.4449 117.731 93.4355 117.636 94.3553C117.566 95.2043 117.283 95.393 116.717 94.9684Z" fill="white"/>
<path d="M123.178 95.1099C123.273 95.0392 123.414 95.0392 123.509 95.1099C123.579 95.2043 123.509 95.275 123.344 95.275C123.178 95.275 123.108 95.2043 123.178 95.1099Z" fill="white"/>
<path d="M126.74 94.1902C126.81 93.9779 126.881 93.7657 126.881 93.7185C126.881 93.6713 126.999 93.6241 127.117 93.6241C127.258 93.6241 127.353 93.8364 127.353 94.0958C127.353 94.3788 127.188 94.5675 126.975 94.5675C126.716 94.5675 126.645 94.4496 126.74 94.1902Z" fill="white"/>
<path d="M114.382 94.1194C114.382 93.577 114.877 92.6808 115.16 92.6808C115.655 92.6808 115.301 94.1902 114.783 94.2845C114.57 94.3317 114.382 94.2609 114.382 94.1194Z" fill="white"/>
<path d="M119.688 93.86L118.98 93.6949L119.617 93.5298C120.278 93.3411 120.749 93.4826 120.749 93.8836C120.749 94.1194 120.726 94.1194 119.688 93.86Z" fill="white"/>
<path d="M118.863 92.7279C118.863 91.761 119.405 91.6195 119.9 92.4685C120.23 93.0345 120.254 93.1525 119.947 93.1525C119.759 93.1525 119.452 93.2232 119.24 93.294C118.957 93.4119 118.863 93.2704 118.863 92.7279Z" fill="white"/>
<path d="M122.966 93.0581C121.905 92.5864 121.221 91.3365 121.221 89.8507C121.221 88.7894 121.315 88.53 121.952 87.9404C122.353 87.563 122.754 87.2564 122.872 87.2564C123.391 87.2564 125.301 89.0724 125.938 90.2044L126.669 91.5016L125.891 92.327C124.994 93.2704 124.004 93.5298 122.966 93.0581Z" fill="white"/>
<path d="M118.037 92.4449C117.966 92.327 118.014 92.2091 118.131 92.2091C118.273 92.2091 118.391 92.327 118.391 92.4449C118.391 92.5864 118.344 92.6808 118.297 92.6808C118.226 92.6808 118.108 92.5864 118.037 92.4449Z" fill="white"/>
<path d="M114.948 92.0676C115.018 91.8553 115.089 91.6431 115.089 91.5959C115.089 91.5487 115.301 91.5016 115.561 91.5016C116.15 91.5016 116.174 91.8789 115.584 92.2091C114.948 92.5393 114.782 92.5157 114.948 92.0676Z" fill="white"/>
<path d="M116.811 91.7846C116.268 91.7138 116.103 91.4072 116.457 91.195C116.551 91.1242 116.976 91.0063 117.4 90.912C118.037 90.7705 118.155 90.8176 118.155 91.2186C118.155 91.7138 117.66 91.9261 116.811 91.7846Z" fill="white"/>
<path d="M118.627 90.9827C118.627 90.6997 118.65 90.5346 118.697 90.5818C118.721 90.629 118.91 90.8648 119.075 91.1006C119.358 91.4308 119.334 91.5016 119.004 91.5016C118.768 91.5016 118.627 91.3129 118.627 90.9827Z" fill="white"/>
<path d="M115.325 90.8176C115.325 90.6761 115.443 90.511 115.561 90.4403C115.702 90.3695 115.797 90.4639 115.797 90.6525C115.797 90.8648 115.702 91.0299 115.561 91.0299C115.443 91.0299 115.325 90.9356 115.325 90.8176Z" fill="white"/>
<path d="M116.198 90.4639C116.009 89.9922 117.683 89.4733 117.966 89.9214C118.179 90.2988 117.966 90.4639 117.07 90.6525C116.528 90.7705 116.292 90.7233 116.198 90.4639Z" fill="white"/>
<path d="M118.415 89.7092C118.415 89.4498 118.485 89.379 118.556 89.5677C118.627 89.7328 118.603 89.945 118.532 90.0158C118.462 90.1101 118.391 89.9686 118.415 89.7092Z" fill="white"/>
<path d="M116.41 89.3318C116.693 88.813 117.518 87.964 117.731 87.964C117.966 87.964 117.99 89.0724 117.754 89.2139C117.636 89.2611 117.259 89.379 116.905 89.4733C116.386 89.5913 116.268 89.5677 116.41 89.3318Z" fill="white"/>
<path d="M118.297 88.7894C118.037 88.0819 118.155 87.7753 118.721 87.6809C119.311 87.563 119.311 87.563 118.933 88.2941C118.462 89.2375 118.485 89.2375 118.297 88.7894Z" fill="white"/>
<path d="M118.155 87.3744C118.155 87.3272 118.627 86.997 119.216 86.6668C119.924 86.2423 120.419 86.1008 120.773 86.1951C121.197 86.3366 121.079 86.431 120.042 86.9263C118.886 87.4451 118.155 87.6338 118.155 87.3744Z" fill="white"/>
<path d="M131.244 66.4788C130.608 65.559 129.263 64.0732 128.296 63.177C127.329 62.2808 126.693 61.5497 126.881 61.5497C127.4 61.5497 131.362 62.6346 132.353 63.0591C133.178 63.4129 133.202 63.46 132.99 64.1911C132.872 64.6157 132.777 65.6769 132.777 66.5496C132.777 67.4458 132.707 68.1533 132.612 68.1533C132.494 68.1533 131.905 67.3986 131.244 66.4788Z" fill="white"/>
<path d="M83.2505 137.915C82.2835 137.42 82.0713 137.137 80.8449 134.708C79.0761 131.264 79.0289 130.463 80.7034 132.42C81.3637 133.198 82.8967 134.802 84.0995 135.981C86.1513 137.962 86.2457 138.104 85.5617 138.009C85.0664 137.939 84.8778 137.986 84.9957 138.175C85.2787 138.599 84.3825 138.481 83.2505 137.915Z" fill="white"/>
<path fill-rule="evenodd" clip-rule="evenodd" d="M122.775 180.883C122.579 180.419 122.798 179.883 123.262 179.687L123.771 179.472C128.711 177.358 131.546 176.088 133.473 174.072C135.4 172.056 135.63 169.094 135.992 167.292C136.092 166.798 137.211 167.666 137.706 167.765C138.201 167.865 138.521 168.346 138.422 168.841C137.986 171.007 136.814 173.073 134.928 175.034C133.047 176.988 129.406 179.083 123.971 181.371C123.506 181.567 122.971 181.348 122.775 180.883Z" fill="#00160A"/>
<path fill-rule="evenodd" clip-rule="evenodd" d="M145.115 86.7827C145.549 86.5247 146.109 86.6669 146.367 87.1003C148.951 91.4402 150.335 96.4012 150.335 101.563C150.335 117.2 137.658 129.876 122.021 129.876C117.866 129.876 113.836 128.98 110.146 127.272C109.688 127.061 107.958 125.374 109.7 126.06C111.442 126.746 118.181 128.285 122.07 128.285C136.698 128.285 147.047 116.191 147.047 101.563C147.047 96.7324 145.115 92.4449 144.798 88.0347C144.761 87.5234 144.682 87.0407 145.115 86.7827Z" fill="#00160A"/>
<path fill-rule="evenodd" clip-rule="evenodd" d="M54.6608 155.908C54.9836 155.52 55.5595 154.737 55.9471 155.06C57.5371 156.384 59.2338 157.919 61.0488 158.215C62.9374 158.523 65.178 158.523 67.7675 158.21C68.2683 158.149 68.7234 158.506 68.784 159.007C68.8446 159.507 68.4878 159.963 67.9871 160.023C65.2371 160.356 62.8272 160.356 60.7546 160.018C58.6083 159.668 56.6122 158.722 54.778 157.194C54.3905 156.871 54.338 156.296 54.6608 155.908Z" fill="#00160A"/>
<path d="M74.0529 123.953C72.8736 123.01 70.3501 120.227 68.4398 117.774C67.4493 116.477 66.3408 113.836 65.6805 111.171C65.3739 109.968 65.0673 108.883 64.9965 108.742C64.9022 108.624 64.5249 106.949 64.1475 105.015C63.5815 102.28 63.7012 101.398 63.2042 98.1258C62.9937 96.7403 62.8032 95.6378 62.8032 95.6378L63.4164 94.8505C63.7702 94.3788 64.2177 93.5983 64.3834 93.1525C65.1381 91.1218 70.6803 84.7565 70.8454 84.9216C70.8926 84.9688 70.7039 86.0772 70.3737 87.3744C70.0671 88.6715 69.6898 90.629 69.5247 91.7374C69.2889 93.577 69.1945 93.7892 68.4634 94.4024C67.5436 95.1807 65.7984 97.6806 65.7984 98.1995C65.7984 98.907 66.8597 98.4353 67.9681 97.2797L69.1002 96.1005V97.3976C69.1002 98.2466 68.9351 99.0249 68.6285 99.6381C68.0389 100.794 68.0389 102.02 68.6049 102.963C68.8879 103.435 69.1474 104.567 69.3124 105.911C70.0436 111.996 71.6001 117.279 74.2651 122.585C74.9255 123.906 75.4443 124.991 75.4207 124.991C75.3736 124.991 74.7604 124.519 74.0529 123.953Z" fill="white"/>
<path fill-rule="evenodd" clip-rule="evenodd" d="M172.187 138.505L173.885 139.259C174.237 139.422 178.121 141.288 182.787 143.53C190.309 147.145 199.863 151.735 199.921 151.735C200.016 151.735 200.458 150.712 200.558 149.519C200.794 146.948 201.667 143.457 202.681 141.028C203.152 139.943 203.53 138.588 203.53 138.47C203.53 138.416 203.146 138.261 202.519 138.008C201.772 137.707 200.678 137.266 199.473 136.689C193.53 133.835 181.903 128.01 180.465 127.137C179.05 126.312 178.766 126.241 178.766 126.783C178.766 127.491 177.328 130.769 176.219 132.538C175.63 133.505 174.474 135.25 173.649 136.406L172.187 138.505ZM199.521 147.49C200.197 147.882 199.025 148.457 198.742 148.552C197.076 148.693 195.114 148.38 193.507 147.443C192.666 146.847 186.048 143.171 181.658 140.732C179.652 139.617 178.11 138.761 177.8 138.576C176.809 137.986 175.866 137.349 175.701 137.16C175.205 136.524 175.677 136.241 177.068 136.359C177.905 136.43 198.06 146.644 199.521 147.49Z" fill="white"/>
<path d="M155.253 140.627C154.64 140.415 153.979 139.943 153.555 139.401L152.847 138.528L155.347 136.052C159.192 132.279 162.022 128.155 164.569 123.556C165.418 122.023 167.941 115.84 168.248 115.156C168.72 114.166 169.073 113.789 170.087 113.223C171.29 112.515 172.658 112.279 173.248 112.68C174.38 113.435 174.38 115.817 173.248 119.92C171.998 124.425 170.323 127.656 166.856 132.302C166.314 133.01 165.3 134.401 164.569 135.368C162.611 137.962 161.338 139.212 159.616 140.179C157.918 141.123 156.927 141.241 155.253 140.627Z" fill="white"/>
<path d="M164.144 140.085L163.649 139.59C163.649 139.59 171.869 129.146 173.342 125.298C174.466 122.361 175.128 121.528 176.02 121.528C176.519 121.528 176.927 121.642 177.115 121.925C177.446 122.42 177.764 123.034 177.339 125.133C176.632 128.529 175.547 130.769 172.292 135.604C171.538 136.712 170.571 137.939 170.146 138.363C169.156 139.283 166.927 140.226 165.63 140.439C164.805 140.557 164.569 140.509 164.144 140.085Z" fill="white"/>
<path fill-rule="evenodd" clip-rule="evenodd" d="M177.952 129.164C178.427 128.076 178.766 127.127 178.766 126.783C178.766 126.241 179.049 126.312 180.464 127.137C181.903 128.01 193.53 133.835 199.473 136.689C201.69 137.75 203.53 138.352 203.53 138.47C203.53 138.588 177.448 130.318 177.952 129.164Z" fill="#E7EAEE"/>
<path fill-rule="evenodd" clip-rule="evenodd" d="M97.2596 130.51C94.2644 128.552 89.7362 123.953 87.5429 120.675C84.4062 115.958 82.3308 110.911 81.3167 105.487C80.5856 101.548 80.6092 95.4873 81.3403 91.9733C82.095 88.3885 83.0619 85.6527 84.7836 82.1858C86.7882 78.1765 88.9108 75.2285 92.0947 72.0447C95.2169 68.9225 81.3403 81.8341 84.7836 104.936C87.5429 124.295 99.4016 131.921 97.2596 130.51Z" fill="#E7EAEE"/>
</svg>
