<svg width="274" height="274" viewBox="0 0 274 274" fill="none" xmlns="http://www.w3.org/2000/svg">
<g id="Illustration/Food">
<g id="Group">
<path id="Blob" fill-rule="evenodd" clip-rule="evenodd" d="M150.693 23.7467C214.75 23.7467 228.237 112.522 228.499 113.252C228.769 114.005 229.023 114.78 229.269 115.531C229.769 117.058 230.412 118.528 230.911 120.045C231.217 120.971 231.779 121.737 232.156 122.611C232.886 124.281 233.781 125.874 234.828 127.366C235.26 127.958 235.599 128.611 235.834 129.304C236 129.834 236.547 129.976 236.784 130.444C237.166 131.202 237.676 131.894 238.118 132.622C238.218 132.878 238.449 133.06 238.722 133.098L238.636 133.82C238.795 134.08 238.85 133.728 239.017 133.79C239.226 134.072 239.525 134.323 239.555 134.752C239.583 135.155 240.054 135.193 240.215 135.545C240.568 136.309 241.551 136.698 241.536 137.701C242.243 138.144 242.59 138.905 243.123 139.503C243.397 139.778 243.564 140.14 243.595 140.524L243.6 140.613C243.596 140.996 244.335 140.91 244.136 141.431C245.266 142.28 245.56 143.666 246.156 144.814C247.114 146.656 248.217 148.436 248.867 150.453C249.192 151.462 249.824 152.417 250.175 153.439C250.964 155.735 251.912 157.982 252.425 160.374C252.636 161.362 253.068 162.304 253.271 163.294L253.504 164.44C253.852 166.158 254.181 167.881 254.4 169.622C254.513 170.015 254.513 170.432 254.4 170.825C254.211 171.272 254.712 171.558 254.752 172.007C254.803 172.539 254.59 173.043 254.743 173.607C254.827 173.919 254.743 174.419 254.84 174.78C255.155 175.954 254.756 177.165 255.098 178.331C255.152 178.782 255.105 179.239 254.96 179.669C254.723 181.105 255.156 182.571 254.724 183.973C254.521 184.665 254.483 185.393 254.61 186.1L254.664 186.373C254.702 186.575 254.727 186.772 254.628 186.908C254.234 187.447 254.335 188.082 254.257 188.67L254.242 188.768C254.129 189.428 254.246 190.119 254.046 190.79C253.775 191.448 253.622 192.149 253.596 192.86C253.696 194.066 253.29 195.148 253.042 196.267C252.918 196.826 253.02 197.491 252.405 197.907C252.092 198.119 252.831 198.529 252.383 198.839L252.33 198.872C252.001 199.057 252.016 199.357 252.108 199.715C252.193 200.043 251.62 200.27 251.784 200.605C251.948 200.94 252.022 201.429 251.83 201.49C251.352 201.647 251.839 202.168 251.437 202.266C251.397 202.288 251.37 202.326 251.363 202.371C251.226 203.63 250.415 204.664 250.214 205.922C250.063 206.674 249.77 207.39 249.352 208.033C249.005 208.654 248.711 209.302 248.472 209.971C248.022 211.097 247.252 212.037 246.819 213.157C246.701 213.46 245.916 213.358 246.315 213.981C245.857 214.142 245.996 214.617 245.812 214.913C245.609 215.137 245.373 215.328 245.111 215.48C244.942 216.147 244.618 216.765 244.165 217.283C243.374 218.44 242.51 219.546 241.579 220.595L240.81 221.456C239.782 222.604 238.721 223.727 237.366 224.519C237.018 224.722 237.176 225.108 236.89 225.317C235.229 226.544 233.699 227.935 231.809 228.864C231.018 229.253 230.34 229.945 229.532 230.35C228 231.119 226.577 232.076 224.938 232.675L224.647 232.777C223.603 233.124 222.576 233.65 221.516 234.032C219.34 234.887 217.068 235.478 214.75 235.79L213.321 235.949C212.05 236.089 210.777 236.219 209.493 236.254C208.886 236.271 208.303 236.078 207.747 236.148C207.205 236.216 206.655 236.172 206.131 236.017C205.717 235.902 205.367 236.258 204.922 236.066C204.58 235.852 204.156 235.82 203.787 235.976L203.714 236.01C203.503 236.133 203.087 235.906 202.765 235.834C202.296 235.768 201.835 235.654 201.389 235.494C201.044 235.334 200.604 235.847 200.363 235.301C199.926 235.64 170.249 228.588 142.987 242.909C140.767 244.38 138.169 245.026 135.797 246.168C134.694 246.7 133.455 246.943 132.267 247.307L132.014 247.387C129.918 248.064 127.769 248.526 125.624 249.009C123.652 249.436 121.655 249.733 119.644 249.898C118.198 250.028 116.746 250.089 115.304 250.247C114.719 250.31 114.146 249.898 113.574 250.252C112.288 249.902 110.938 250.327 109.656 249.931C108.803 250.184 108.002 249.871 107.218 249.64C106.62 249.463 106.057 249.831 105.452 249.57C104.902 249.283 104.286 249.146 103.665 249.173C102.636 249.33 101.74 248.953 100.802 248.753C98.6236 248.289 96.4526 247.788 94.2895 247.249C93.581 247.071 92.7853 247.14 92.1783 246.598C91.6459 246.123 90.8056 246.421 90.2824 245.859C90.0915 245.655 89.8479 246.051 89.5603 245.896C88.9994 245.595 88.2784 245.794 87.7543 245.25C87.366 244.848 86.6332 245.12 86.2033 244.635L86.1466 244.564C85.893 244.211 85.2235 245.042 85.0254 244.257C84.2255 244.196 83.5624 243.76 82.85 243.461C82.2599 243.214 81.5634 243.353 81.0308 242.839C80.577 242.401 79.7193 242.724 79.3262 242.067C78.3645 242.059 77.6552 241.34 76.7387 241.15C76.0429 240.968 75.3749 240.693 74.7523 240.333C73.7654 239.825 72.7631 239.347 71.7535 238.894C71.3913 238.725 71.0386 238.537 70.6972 238.33C70.5058 238.218 70.4593 237.97 70.1858 237.909C68.4545 237.526 66.9984 236.517 65.5196 235.634C64.6763 235.198 63.8694 234.696 63.1066 234.132L62.854 233.942C62.6307 233.75 62.1671 233.655 61.9708 233.388C61.4236 232.645 60.6051 232.281 59.8629 231.835L59.74 231.76C59.3219 231.513 58.9418 231.208 58.6117 230.852C58.5492 230.784 58.5238 230.637 58.4574 230.621C57.2254 230.317 56.4903 229.299 55.5483 228.588C54.7381 227.977 54.0294 227.232 53.2316 226.609L52.9278 226.381C51.0607 225.046 30.6306 202.565 28.3155 198.685L27.6531 197.575C26.9915 196.463 26.3376 195.342 25.7355 194.2L25.2227 193.227C24.7108 192.252 24.2069 191.27 23.7614 190.271L23.1654 188.938C21.9762 186.27 20.8126 183.588 19.8209 180.834C18.9365 178.376 18.2043 175.878 17.4652 173.378C16.9918 171.773 16.5917 170.16 16.2537 168.525C15.7138 165.911 15.2323 163.287 14.8093 160.652C14.4148 158.171 14.5607 155.653 14.0339 153.2C14.379 151.694 13.7444 150.165 14.1385 148.661C13.8462 147.918 14.1032 147.147 14.1307 146.414C14.1588 145.658 13.9893 144.866 14.2912 144.1C14.4295 143.752 14.1098 143.334 14.283 142.909C14.4732 142.555 14.4951 142.135 14.3428 141.764C14.8562 141.528 14.2443 141.164 14.4575 140.828C14.6873 140.463 14.7888 140.033 14.746 139.604C14.5965 138.644 15.1494 137.758 15.0524 136.89C14.9512 136.004 15.3891 135.252 15.3877 134.457L15.3821 134.307C15.3065 133.264 16.0524 132.478 16.0773 131.491C16.0796 131.405 16.2838 131.325 16.3957 131.239C16.3598 131.017 16.1143 131.068 15.9401 130.895C16.2182 130.654 16.4615 130.375 16.6631 130.067C16.8157 129.645 16.9241 129.208 16.9865 128.764L16.2794 127.851C16.5404 127.33 16.4494 126.855 16.7977 126.446C16.9494 126.267 16.8648 125.721 16.8835 125.343C16.9082 124.848 17.545 124.553 17.3914 124.161C17.2729 123.711 17.3113 123.234 17.5002 122.809C18.4112 118.793 19.3391 114.781 20.2839 110.772C20.3833 110.343 20.2969 109.802 20.8256 109.551C20.2478 108.954 21.1551 108.746 21.1692 108.273C21.2429 107.831 21.4132 107.411 21.6681 107.042C22.0289 106.352 22.0621 105.496 22.2677 104.718C22.3218 104.168 22.53 103.645 22.8685 103.208C23.2204 102.843 23.1697 102.209 23.4347 101.697C23.8091 101.079 24.0993 100.413 24.2976 99.7183C24.3573 99.2189 24.5563 98.7464 24.872 98.3545C25.1524 98.045 24.9221 97.4042 25.467 97.1707C25.6198 96.2725 26.1561 95.5512 26.5531 94.7642L26.6258 94.6158C27.6011 92.5907 28.6972 90.6259 29.9083 88.7319C30.9145 87.1379 31.8936 85.527 32.9151 83.9429C33.2475 83.4317 33.6008 82.9222 33.9663 82.4368C35.2358 80.6514 36.6033 78.9376 38.0624 77.303C39.3968 75.8889 40.6689 74.4112 42.0701 73.0514C42.8149 72.328 43.4245 71.4399 44.1477 70.6714C45.8518 68.8578 47.6019 67.0933 49.4425 65.4185C50.997 63.8828 52.6969 62.5012 54.5184 61.2929C55.0136 60.9918 55.4209 60.5503 55.8989 60.2169C56.4792 59.8973 57.0361 59.5369 57.5652 59.1384C58.1809 58.5595 58.9363 58.1912 59.5581 57.6548C60.0409 57.2386 60.813 57.4759 61.1585 56.7273C61.4103 56.1826 62.3528 56.3821 62.6703 55.7457C63.5403 55.7168 63.9466 54.8743 64.7368 54.5974L64.8421 54.5646C65.6745 54.3375 66.385 53.6655 67.1488 53.1891C67.8854 52.6675 68.6562 52.1957 69.456 51.7768C70.9576 51.1007 72.2536 50.0704 73.7212 49.372C75.1207 48.707 76.38 47.7335 77.9062 47.3628C78.2668 47.2755 78.1996 46.9575 78.4478 46.8218C78.706 46.6799 78.9888 46.7739 79.222 46.6102C80.1872 45.9806 86.6353 23.7467 150.693 23.7467Z" fill="#EDE8E3"/>
<path id="Shape" fill-rule="evenodd" clip-rule="evenodd" d="M78.4352 71.4041C76.2924 72.6129 73.155 71.0708 72.8032 68.6359C74.1698 68.5629 75.6308 68.4563 76.7111 67.6162C77.7915 66.776 78.1698 64.9156 77.0867 64.0789C68.2698 62.996 59.6927 60.0003 52.1188 55.3584C57.2904 53.8001 61.7404 50.513 66.598 48.1513C71.4556 45.7895 77.3308 44.3928 82.1755 46.7809C86.9326 49.1258 92.4089 46.1347 97.373 44.2675C106.005 41.0207 115.903 41.2929 124.343 45.0092C130.501 47.7206 140.936 43.3196 147.588 42.3103C158.455 40.6616 169.062 48.2775 179.974 46.9586C178.803 47.7326 177.633 48.5065 176.462 49.2805C177.615 49.1752 178.774 49.1325 179.931 49.1529C170.876 53.4861 161.821 57.8193 152.766 62.1525C155.06 63.0804 157.353 64.0082 159.647 64.9361C159.108 66.6649 157.175 67.8325 155.394 67.5052C156.827 68.6458 158.26 69.7864 159.693 70.927C158.164 72.0135 156.227 72.5127 154.363 72.3012C156.349 73.5833 157.987 75.397 159.062 77.5022C163.792 75.9263 168.974 75.7323 173.809 76.9499C169.44 77.5226 165.072 78.0953 160.704 78.668C161.364 80.4641 162.023 82.2602 162.683 84.0562C168.39 82.7502 174.454 83.0471 180.006 84.9043C174.501 85.0444 168.996 85.1845 163.49 85.3246C163.362 92.6285 159.726 100.077 153.341 103.626C146.956 107.176 134.198 110.332 129.972 99.9971C126.737 102.12 126.966 107.224 129.272 110.332C131.579 113.439 135.244 115.159 138.558 117.156C149.568 123.791 157.872 134.779 161.249 147.182C164.627 159.585 163.041 173.266 156.916 184.567C165.174 185.851 172.847 190.55 177.744 197.323C188.288 192.416 194.128 181.222 202.204 172.854C211.392 163.336 224.075 157.269 237.251 156.089C245.047 155.391 253.938 156.894 258.485 163.265C264.396 171.545 258.946 184.42 249.511 188.227C242.032 191.244 233.597 189.726 225.552 190.296C209.376 191.443 195.174 200.982 181.835 210.205C181.291 213.191 182.383 216.425 184.626 218.47C189.397 213.538 195.416 209.822 201.963 207.767C204.383 207.007 208.011 207.205 208.279 209.727C208.381 210.682 207.879 211.587 207.371 212.402C203.006 219.399 196.851 225.27 189.655 229.3C185.857 231.427 181.613 233.076 177.266 232.832C172.92 232.589 168.493 230.08 167.017 225.985C166.333 224.087 166.259 221.89 164.963 220.344C162.772 217.728 158.561 218.511 155.489 219.997C152.416 221.483 149.141 223.504 145.844 222.622C137.602 220.418 129.025 219.472 120.501 219.829C109.645 220.284 98.5839 222.811 88.0663 220.085C84.5528 219.174 80.621 217.737 77.5084 219.605C71.3745 223.284 75.5118 235.064 69.2189 238.465C66.9898 239.669 64.2581 239.225 61.799 238.615C50.9318 235.917 40.7387 230.546 32.3699 223.108C31.5633 222.391 30.7324 221.585 30.5063 220.53C29.8281 217.365 34.4998 216.049 37.6831 216.635C43.0905 217.63 48.2621 219.884 52.6721 223.168C54.2181 224.319 56.5703 222.976 57.2252 221.163C57.8802 219.35 57.4295 217.354 57.1739 215.444C55.5594 203.378 63.1293 190.692 74.515 186.383C67.6216 176.323 65.0004 163.434 67.4171 151.481C69.8338 139.528 77.2564 128.67 87.5164 122.078C91.6151 119.445 96.3242 117.291 98.9364 113.179C101.549 109.067 100.402 102.168 95.6236 101.22C91.1212 106.097 83.7979 108.159 77.4125 106.349C71.0272 104.539 65.8753 98.9408 64.6012 92.4273C60.3631 93.8587 56.1249 95.29 51.8868 96.7213C55.6485 93.8222 60.1033 91.8289 64.7717 90.956C65.2197 89.0147 65.6677 87.0734 66.1157 85.1321C58.0289 84.6104 49.828 85.9413 42.3211 88.9937C46.9406 85.5165 52.818 83.7496 58.589 84.1031C64.4589 84.4627 70.4257 81.5907 73.8063 76.7786C71.6912 76.035 69.7903 74.6926 68.382 72.948C70.5391 71.7772 73.1517 71.4737 75.5197 72.1191M119.921 198.725C119.536 199.1 119.122 199.545 119.149 200.081C119.176 200.618 119.981 201.018 120.259 200.558C121.774 198.048 124.41 196.243 127.298 195.737C130.187 195.232 133.279 196.034 135.557 197.881C136.352 198.525 137.061 199.295 137.969 199.766C138.296 199.935 138.856 199.94 138.869 199.572C138.874 199.451 138.805 199.341 138.737 199.241C137.101 196.83 134.655 194.979 131.89 194.06C129.466 193.255 126.657 193.204 124.489 194.555C123.702 195.045 123.031 195.697 122.366 196.344C121.551 197.138 120.736 197.932 119.921 198.725ZM108.167 194.338C105.029 193.923 101.65 194.976 99.5603 197.354C99.1919 197.773 98.8571 198.244 98.7304 198.788C98.6037 199.331 98.7228 199.96 99.1438 200.326C100.76 197.815 103.633 196.158 106.616 196.018C109.599 195.877 112.615 197.255 114.461 199.603C114.75 199.97 115.025 200.372 115.435 200.596C115.844 200.82 116.44 200.792 116.69 200.397C116.988 199.925 116.627 199.322 116.26 198.902C114.175 196.521 111.305 194.753 108.167 194.338ZM130.302 191.125C130.254 191.656 130.954 191.986 131.458 191.812C131.962 191.638 132.296 191.174 132.633 190.762C135.439 187.331 140.78 186.297 144.663 188.434C145.173 188.004 145.202 187.179 144.861 186.606C144.52 186.033 143.898 185.681 143.263 185.478C141.887 185.039 140.394 185.189 138.979 185.475C135.629 186.153 132.246 187.741 130.485 190.669C130.4 190.811 130.317 190.961 130.302 191.125ZM117.134 202.257C115.757 202.352 114.41 202.717 113.121 203.21C111.34 203.892 109.586 204.885 108.544 206.481C110.073 206.914 111.539 205.774 112.935 205.016C116.068 203.316 120.132 203.492 123.107 205.456C124.04 206.073 125.239 206.869 126.149 206.218C124.02 203.549 120.54 202.02 117.134 202.257ZM122.789 201.396C123.833 200.852 124.668 199.968 125.704 199.408C127.13 198.636 128.907 198.547 130.403 199.172C131.216 199.512 131.935 200.043 132.736 200.409C133.537 200.776 134.49 200.966 135.288 200.593C135.377 200.552 135.468 200.497 135.506 200.407C135.566 200.26 135.458 200.102 135.354 199.982C133.569 197.945 130.772 196.841 128.077 197.11C125.381 197.379 122.858 199.014 121.511 201.364C121.792 201.734 122.377 201.611 122.789 201.396ZM101.878 201.493C102.438 201.175 102.875 200.683 103.387 200.293C104.41 199.512 105.742 199.152 107.021 199.3C108.445 199.466 109.73 200.22 110.908 201.038C111.253 201.277 111.604 201.529 112.013 201.624C112.421 201.719 112.908 201.616 113.139 201.265C113.368 200.919 113.276 200.436 113.031 200.101C112.787 199.766 112.419 199.546 112.061 199.336C110.605 198.482 109.066 197.628 107.38 197.541C105.273 197.432 103.314 198.531 101.491 199.594C100.752 200.025 99.9033 200.679 100.06 201.52C100.566 201.918 101.319 201.811 101.878 201.493ZM111.369 193.324C111.75 193.816 112.495 193.288 112.915 192.83C114.209 191.416 116.074 190.541 117.988 190.449C119.902 190.357 121.842 191.049 123.265 192.333C123.624 192.656 124.003 193.039 124.486 193.052C124.969 193.065 125.405 192.39 125.021 192.096C122.97 190.52 120.582 189.231 118 189.061C115.418 188.891 112.636 190.049 111.44 192.344C111.28 192.652 111.157 193.05 111.369 193.324ZM134.198 192.892C134.539 192.748 134.788 192.455 135.049 192.193C137.036 190.194 140.401 189.747 142.84 191.159C143.45 191.511 144.368 191.901 144.722 191.292C145.018 190.784 144.491 190.193 143.989 189.888C140.708 187.899 136.031 188.656 133.547 191.58C133.293 191.878 133.051 192.286 133.224 192.636C133.389 192.967 133.857 193.036 134.198 192.892ZM136.011 193.08C135.871 193.198 135.73 193.33 135.671 193.504C135.505 193.99 136.095 194.444 136.607 194.404C137.118 194.363 137.553 194.034 138.017 193.815C139.149 193.282 140.509 193.409 141.658 193.905C142.113 194.101 142.553 194.355 143.043 194.428C143.532 194.502 144.103 194.34 144.326 193.898C142.379 191.484 138.391 191.092 136.011 193.08ZM105.229 192.154C105.519 192.29 105.916 192.264 106.103 192.003C106.357 191.649 106.085 191.165 105.815 190.822C104.901 189.661 103.918 188.517 102.662 187.738C101.406 186.958 99.8245 186.583 98.4258 187.061C98.2835 187.578 98.9265 187.928 99.4325 188.105C101.381 188.784 103.149 189.973 104.514 191.52C104.726 191.761 104.938 192.018 105.229 192.154ZM122.446 193.451C120.147 191.984 117.009 191.959 114.686 193.387C114.282 193.635 113.867 193.984 113.836 194.457C113.804 194.93 114.446 195.369 114.765 195.018C116.048 193.603 118.393 193.31 119.986 194.364C120.767 194.882 121.89 194.812 122.601 194.2C122.937 194.165 122.731 193.632 122.446 193.451ZM139.172 201.385C135.905 201.164 132.865 203.086 130.494 205.345C130.666 205.744 131.255 205.638 131.654 205.465C134.355 204.296 137.055 203.128 139.756 201.959C139.959 201.69 139.508 201.408 139.172 201.385ZM108.079 202.84C108.481 203.068 108.874 203.377 109.336 203.378C109.798 203.378 110.256 202.822 109.963 202.465C109.04 201.34 107.59 200.668 106.136 200.69C104.681 200.712 103.253 201.429 102.365 202.581C102.474 203 102.987 203.193 103.415 203.13C103.844 203.068 104.221 202.827 104.618 202.655C105.717 202.178 107.037 202.249 108.079 202.84ZM124.279 202.533C124.243 202.855 124.607 203.101 124.931 203.083C125.254 203.065 125.538 202.876 125.821 202.72C127.011 202.064 128.477 201.93 129.766 202.358C130.593 202.633 131.624 203.081 132.22 202.447C132.272 202.084 131.909 201.811 131.586 201.639C130.427 201.023 129.152 200.558 127.84 200.57C126.528 200.582 125.175 201.133 124.426 202.21C124.358 202.308 124.293 202.414 124.279 202.533ZM121.841 188.417C123.191 188.9 124.449 189.641 125.527 190.588C125.971 190.979 126.396 191.411 126.935 191.654C127.474 191.898 128.174 191.904 128.595 191.49C127.662 190.774 126.895 189.842 126.373 188.789C126.091 188.221 125.34 188.117 124.707 188.086C123.782 188.041 122.857 187.996 121.933 187.951C121.835 188.082 121.8 188.258 121.841 188.417ZM109.778 191.664C110.255 191.218 110.607 190.656 111.049 190.174C111.733 189.427 112.634 188.88 113.613 188.619C114.035 188.507 114.591 188.29 114.527 187.858C113.33 187.65 111.965 187.482 111.021 188.247C109.7 189.318 108.652 190.724 108.003 192.296C108.641 192.437 109.3 192.11 109.778 191.664ZM99.1408 191.123C99.9984 191.682 100.856 192.24 101.714 192.799C102.077 193.036 102.54 193.278 102.917 193.063C103.266 192.865 103.32 192.352 103.137 191.994C102.955 191.635 102.608 191.396 102.274 191.171C101.576 190.701 100.878 190.231 100.18 189.761C99.5951 189.367 98.6427 189.053 98.3246 189.682C98.0504 190.224 98.6317 190.791 99.1408 191.123ZM117.197 197.84C117.525 198.165 117.985 198.517 118.401 198.318C118.592 198.227 118.714 198.04 118.827 197.861C119.198 197.274 119.57 196.686 119.942 196.099C118.969 195.016 117.058 194.987 116.052 196.04C115.975 196.121 115.9 196.213 115.886 196.324C115.864 196.5 116 196.652 116.126 196.777C116.483 197.131 116.84 197.485 117.197 197.84ZM102.19 206.242C102.888 206.486 103.711 206.559 104.326 206.149C103.4 205.084 102.315 204.158 101.117 203.411C100.778 203.199 100.395 202.994 99.9984 203.05C99.602 203.107 99.2512 203.558 99.4432 203.909C100.032 204.987 101.031 205.835 102.19 206.242ZM140.452 197.682C140.782 197.284 141.112 196.885 141.441 196.487C141.555 196.35 141.675 196.195 141.667 196.017C141.658 195.791 141.452 195.629 141.255 195.518C140.57 195.133 139.761 194.972 138.981 195.066C138.683 195.102 138.372 195.183 138.162 195.398C137.952 195.613 137.892 195.996 138.103 196.209C138.581 196.694 139.06 197.179 139.538 197.664C139.695 197.822 139.893 197.994 140.11 197.947C140.254 197.915 140.359 197.795 140.452 197.682ZM106.062 189.078C106.357 189.396 106.729 189.722 107.162 189.686C108.09 189.61 108.389 188.008 109.316 188.096C109.565 187.685 108.886 187.357 108.406 187.349C107.164 187.33 105.922 187.31 104.68 187.29C105.085 187.926 105.548 188.526 106.062 189.078ZM113.733 206.536C116.316 206.525 118.9 206.513 121.484 206.502C121.257 205.991 120.651 205.784 120.104 205.671C118.311 205.299 116.431 205.356 114.664 205.835C114.268 205.942 113.817 206.134 113.733 206.536ZM129.686 203.817C128.831 203.856 127.976 203.894 127.121 203.933C126.845 203.945 126.491 204.025 126.457 204.3C126.442 204.422 126.503 204.54 126.563 204.648C126.789 205.058 127.029 205.485 127.42 205.744C127.811 206.002 128.399 206.027 128.703 205.671C128.936 205.398 128.955 204.971 129.233 204.744C129.412 204.597 129.66 204.568 129.858 204.448C130.056 204.328 130.182 204.017 129.999 203.876C129.913 203.81 129.794 203.812 129.686 203.817ZM107.551 205.247C107.779 204.891 107.563 204.386 107.207 204.157C106.851 203.928 106.407 203.9 105.984 203.879C105.517 203.856 104.902 203.942 104.818 204.402C104.778 204.621 104.89 204.836 104.998 205.031C105.315 205.603 105.781 206.259 106.432 206.194C106.936 206.144 107.277 205.674 107.551 205.247ZM141.32 200.12C141.704 200.152 142.048 199.892 142.317 199.617C143.138 198.777 143.66 197.652 143.77 196.483C143.499 196.309 143.167 196.578 142.958 196.824C142.259 197.651 141.56 198.478 140.861 199.304C140.613 199.598 140.937 200.089 141.32 200.12ZM98.5577 194.265C98.9475 194.752 99.6994 194.905 100.249 194.608C100.53 194.456 100.768 194.155 100.712 193.84C100.662 193.559 100.407 193.37 100.171 193.209C99.8315 192.977 99.4915 192.746 99.1516 192.514C99.0478 192.443 98.9284 192.369 98.8054 192.394C98.7205 192.412 98.6524 192.474 98.5954 192.539C98.1847 193.01 98.1679 193.777 98.5577 194.265ZM128.748 189.116C129.156 189.458 129.761 189.104 130.166 188.758C130.606 188.382 131.046 188.007 131.485 187.631C131.236 187.393 130.839 187.447 130.502 187.517C129.523 187.719 128.544 187.921 127.566 188.124C127.96 188.454 128.354 188.785 128.748 189.116ZM144.118 184.314C144.364 184.621 144.883 184.555 145.165 184.281C145.448 184.007 145.552 183.602 145.633 183.217C145.653 183.124 145.671 183.024 145.632 182.938C145.533 182.719 145.208 182.785 144.99 182.886C144.403 183.16 143.712 183.81 144.118 184.314Z" fill="white"/>
<path id="Shape_2" fill-rule="evenodd" clip-rule="evenodd" d="M67.4171 151.481C69.8338 139.528 78.0969 129.522 88.3569 122.931C83.1694 130.042 67.2502 141.703 72.3669 154.695C80.5458 175.463 112.363 178.729 111.256 178.955C92.4378 182.792 65.6177 160.381 67.4171 151.481Z" fill="#E7EAEE"/>
<g id="Food">
<path id="Combined Shape" fill-rule="evenodd" clip-rule="evenodd" d="M127.612 47.7543C126.303 47.9131 125.149 48.9615 124.867 50.2496C135.464 44.5517 148.264 43.0869 159.875 46.2432C159.885 52.0987 155.777 57.7306 150.199 59.5103L138.105 63.3686C141.295 63.7224 144.573 63.2546 147.537 62.0224C148.59 63.6818 150.325 64.8937 152.246 65.3115L148.528 66.1268C149.076 67.7969 150.195 69.2737 151.655 70.253C150.416 69.8288 149.038 69.8244 147.797 70.2408L148.629 73.2634C143.147 72.5031 137.29 73.2495 132.673 76.3007C128.056 79.3518 124.956 84.9607 125.788 90.4319C126.761 84.4834 130.838 79.1316 136.314 76.6125C141.79 74.0934 148.506 74.4803 153.657 77.6116L150.163 80.1995C151.505 80.7332 153.095 80.5969 154.326 79.8425C157.015 81.0322 156.271 85.9525 153.35 86.2933L157.213 86.5619C157.883 93.1317 153.825 99.9067 147.716 102.416C141.608 104.926 133.959 102.96 129.817 97.8172C124.675 100.443 125.035 108.401 128.7 112.862C131.258 115.977 134.781 118 138.309 120.027C139.836 120.903 141.363 121.78 142.814 122.747C150.52 127.88 156.265 135.885 158.662 144.83C154.477 147.632 150.754 151.123 147.689 155.12C152.223 154.908 156.664 153.058 160.008 149.988L160.722 156.895C157.051 158.026 153.752 160.333 151.432 163.394C154.704 163.728 158.078 162.963 160.886 161.253C159.88 169.2 158.064 177.044 155.476 184.626L147.038 184.556C149.04 179.024 151.068 173.072 149.593 167.377C148.118 161.681 141.503 156.98 136.297 159.719C142.285 154.893 146.819 148.286 149.17 140.962L134.09 160.427L122.519 160.525C122.155 155.073 121.805 149.485 123.355 144.245C124.905 139.005 128.774 134.1 134.106 132.905C134.685 132.776 135.301 132.67 135.925 132.563C138.531 132.117 141.279 131.646 142.044 129.291C133.4 128.788 124.736 134.321 121.557 142.375C119.291 148.113 119.691 154.51 120.125 160.664C112.134 159.512 103.952 159.697 96.0218 161.21C94.645 156.517 93.2174 151.719 90.3295 147.772C87.4417 143.825 82.7535 140.832 77.8872 141.319C85.7242 142.484 89.6062 151.192 92.5614 158.543C95.5165 165.895 100.881 174.291 108.771 173.564C111.017 173.357 111.733 177.048 110.011 178.506C108.289 179.964 105.73 179.686 103.526 179.204C92.1711 176.719 81.5701 170.888 73.3908 162.63C71.7982 161.022 70.2582 159.263 69.5224 157.123C68.6145 154.482 69.0374 151.566 69.8181 148.885C73.8065 135.189 86.0807 125.805 97.7454 117.594C104.021 113.176 103.796 102.229 97.344 98.0729C92.5681 102.413 86.2 105.448 79.7856 104.74C73.3713 104.032 67.3006 98.7797 67.0937 92.3297C69.1083 92.1521 71.0829 91.5337 72.8388 90.5302C71.1153 89.9178 69.1729 89.944 67.4665 90.6026C67.0025 88.8643 67.3413 86.9287 68.3682 85.4513L72.0253 85.0606C71.2902 84.2293 70.2647 83.6599 69.1704 83.4753C71.8097 79.0773 77.9356 77.8736 82.8447 79.3597C87.7539 80.8459 91.7297 84.3866 95.5334 87.8276C91.5671 79.1317 80.8123 76.3286 71.4221 74.5466L75.5197 72.1191C73.1517 71.4737 70.5391 71.7772 68.382 72.948C69.7903 74.6926 71.6912 76.035 73.8063 76.7786C70.4257 81.5907 64.4589 84.4627 58.589 84.1031C52.818 83.7496 46.9406 85.5165 42.3211 88.9937C49.828 85.9413 58.0289 84.6104 66.1157 85.1321L64.7717 90.956C60.1033 91.8289 55.6485 93.8222 51.8868 96.7213L64.6012 92.4273C65.8753 98.9408 71.0272 104.539 77.4125 106.349C83.7979 108.159 91.1212 106.097 95.6236 101.22C100.402 102.168 101.549 109.067 98.9364 113.179C96.8681 116.435 93.485 118.464 90.1312 120.474L90.1308 120.474L90.1305 120.475L90.1304 120.475C89.2489 121.003 88.3694 121.53 87.5164 122.078C77.2564 128.67 69.8338 139.528 67.4171 151.481C65.0004 163.434 67.6216 176.323 74.515 186.383C63.1293 190.692 55.5594 203.378 57.1739 215.444C57.2108 215.72 57.2519 215.998 57.293 216.277L57.2931 216.277L57.2931 216.277L57.2931 216.278C57.5368 217.928 57.7854 219.613 57.2252 221.163C56.5703 222.976 54.2181 224.319 52.6721 223.168C48.2621 219.884 43.0905 217.63 37.6831 216.635C34.4998 216.049 29.8281 217.365 30.5063 220.53C30.7324 221.585 31.5633 222.391 32.3699 223.108C40.7387 230.546 50.9318 235.917 61.799 238.615C64.2581 239.225 66.9898 239.669 69.2189 238.465C72.3923 236.75 72.9133 232.904 73.4366 229.041C73.951 225.243 74.4678 221.429 77.5084 219.605C80.2542 217.957 83.6375 218.881 86.8088 219.747L86.8112 219.748C87.234 219.863 87.6531 219.977 88.0663 220.085C95.6072 222.039 103.427 221.293 111.251 220.547C114.339 220.252 117.428 219.958 120.501 219.829C129.025 219.472 137.602 220.418 145.844 222.622C148.715 223.39 151.569 221.957 154.287 220.593C154.691 220.391 155.091 220.19 155.489 219.997C158.561 218.511 162.772 217.728 164.963 220.344C165.83 221.379 166.15 222.704 166.472 224.036L166.472 224.037C166.631 224.696 166.791 225.357 167.017 225.985C168.493 230.08 172.92 232.589 177.266 232.832C181.613 233.076 185.857 231.427 189.655 229.3C196.851 225.27 203.006 219.399 207.371 212.402C207.879 211.587 208.381 210.682 208.279 209.727C208.011 207.205 204.383 207.007 201.963 207.767C195.416 209.822 189.397 213.538 184.626 218.47C182.383 216.425 181.291 213.191 181.835 210.205C195.174 200.982 209.376 191.443 225.552 190.296C228.089 190.117 230.664 190.145 233.235 190.172H233.236C238.821 190.233 244.391 190.293 249.511 188.227C258.946 184.42 264.396 171.545 258.485 163.265C253.938 156.894 245.047 155.391 237.251 156.089C224.075 157.269 211.392 163.336 202.204 172.854C199.652 175.499 197.322 178.426 194.997 181.348L194.997 181.348C189.966 187.67 184.955 193.967 177.744 197.323C172.847 190.55 165.174 185.851 156.916 184.567C163.041 173.266 164.627 159.585 161.249 147.182C157.872 134.779 149.568 123.791 138.558 117.156C137.96 116.795 137.35 116.444 136.739 116.092L136.738 116.091L136.738 116.091L136.737 116.091L136.737 116.09L136.736 116.09L136.736 116.09L136.735 116.09L136.735 116.089L136.734 116.089L136.734 116.089C133.962 114.491 131.162 112.876 129.272 110.332C126.966 107.224 126.737 102.12 129.972 99.9971C134.274 105.901 143.303 107.176 149.688 103.626C156.072 100.077 159.708 92.6285 159.837 85.3246L176.353 84.9043C170.801 83.0471 164.736 82.7502 159.03 84.0562L157.051 78.668L170.155 76.9499C165.321 75.7323 160.139 75.9263 155.409 77.5022C154.334 75.397 152.695 73.5833 150.71 72.3012C152.574 72.5127 154.51 72.0135 156.04 70.927L151.741 67.5052C153.522 67.8325 155.455 66.6649 155.994 64.9361L149.112 62.1525L176.278 49.1529C175.12 49.1325 173.962 49.1752 172.809 49.2805L176.32 46.9586C170.959 47.6067 165.671 46.0975 160.389 44.5902C154.922 43.03 149.462 41.4718 143.935 42.3103C141.764 42.6398 139.579 43.3305 137.406 44.0174C132.922 45.4348 128.491 46.8356 124.343 45.0092C115.903 41.2929 106.005 41.0207 97.373 44.2675C96.6097 44.5546 95.8343 44.8683 95.0513 45.185L95.0512 45.1851C90.7418 46.9284 86.2011 48.7653 82.1755 46.7809C77.3308 44.3928 71.4556 45.7895 66.598 48.1513C64.8928 48.9803 63.2379 49.9234 61.5843 50.8657L61.5842 50.8657L61.5842 50.8658C58.5272 52.6078 55.475 54.3471 52.1188 55.3584C59.6927 60.0003 68.2698 62.996 77.0867 64.0789C78.1698 64.9156 77.7915 66.776 76.7111 67.6162C75.6308 68.4563 74.1698 68.5629 72.8032 68.6359C73.155 71.0708 76.2924 72.6129 78.4352 71.4041C77.5347 71.5714 77.4675 70.1085 77.8416 69.2725L80.176 64.0556C81.989 64.7214 84.2454 63.6532 84.8798 61.829C80.3901 62.3694 75.7317 62.8951 71.4308 61.4983C67.1299 60.1016 63.2871 56.2051 63.4887 51.6875C73.0665 46.1383 85.9243 46.8897 94.7905 53.5167C94.1059 51.5188 92.4232 49.8911 90.4036 49.2733C92.7354 46.9776 95.8308 45.471 99.0762 45.0522C97.1483 46.5776 96.2647 49.3047 96.9319 51.6709L105.588 43.7092C104.168 46.2549 103.373 49.1461 103.291 52.0599C106.501 49.9619 109.059 46.8799 110.529 43.3377L114.38 43.8784C112.023 45.8702 110.709 49.0353 110.964 52.1111C113.898 50.287 116.173 47.4259 117.289 44.1561C120.905 44.7403 124.416 45.9643 127.612 47.7543ZM233.983 188.697C232.047 188.633 230.109 188.569 228.183 188.623C213.847 189.03 200.519 196.013 188.691 204.123C188.525 204.237 188.359 204.351 188.193 204.465C185.949 206.009 183.682 207.568 181.119 208.479L178.109 199.706C177.948 199.235 177.848 198.588 178.286 198.351C182.889 195.862 187.092 192.636 190.686 188.832C193.079 186.299 195.201 183.516 197.321 180.736L197.322 180.736L197.322 180.735L197.322 180.735L197.323 180.735L197.323 180.734L197.323 180.734L197.323 180.734L197.324 180.733L197.324 180.733L197.324 180.733L197.324 180.732L197.325 180.732L197.325 180.732L197.325 180.731C200.329 176.792 203.328 172.86 207.084 169.655C213.081 164.537 220.631 161.607 228.207 159.422C233.813 157.805 239.688 156.537 245.455 157.425C251.222 158.313 256.9 161.755 259.014 167.193C260.694 171.512 259.872 176.607 257.284 180.452C254.697 184.296 250.495 186.913 245.993 188.01C242.077 188.965 238.033 188.831 233.983 188.697ZM69.0335 207.282C69.3366 208.003 69.5278 208.965 68.9226 209.461C68.1432 210.099 67.0375 209.276 66.3825 208.511L60.8002 201.988C59.4638 205.462 58.8507 209.212 59.0113 212.931C59.0435 213.677 59.1043 214.435 59.1654 215.195C59.3987 218.1 59.6351 221.043 58.2898 223.562C57.6997 224.667 56.6956 225.681 55.4456 225.762C54.7371 225.808 54.0473 225.549 53.3934 225.272C51.6011 224.515 49.8351 223.583 48.0697 222.652C43.5252 220.255 38.9843 217.859 34.0081 218.431C33.3285 218.509 32.4823 218.844 32.5088 219.528C32.5207 219.834 32.7203 220.097 32.9145 220.334C40.0891 229.096 51.3086 233.345 62.1694 236.553C63.9456 237.078 65.8177 237.589 67.6265 237.19C69.4352 236.792 71.1142 235.161 70.8958 233.322C70.3179 228.456 71.8426 223.376 75.0046 219.632C76.2669 218.138 77.863 216.808 79.7784 216.41C82.1311 215.921 84.4305 216.89 86.6949 217.845C87.2767 218.09 87.8562 218.335 88.4337 218.553C92.8603 220.226 97.8359 220.409 102.373 219.064C100.599 219.041 99.7473 216.914 99.3797 215.179C96.9977 203.935 95.7313 192.455 95.6052 180.962C95.5915 179.713 94.7149 178.608 93.6576 177.942C92.7626 177.378 91.7423 177.064 90.7275 176.752L90.7272 176.752L90.7257 176.751C90.5421 176.695 90.3588 176.639 90.1764 176.581C86.481 175.41 82.9989 173.57 79.9499 171.176C79.5657 170.874 79.1873 170.563 78.8088 170.252C77.6418 169.293 76.4739 168.333 75.1343 167.646C73.36 166.736 71.1643 166.364 69.3861 167.267C68.9895 168.212 69.7067 169.31 70.6246 169.767C71.3197 170.112 72.0984 170.206 72.8754 170.3L72.8762 170.3C73.1248 170.33 73.3733 170.36 73.6188 170.398C74.7875 170.579 75.9249 170.96 76.9675 171.518C78.0628 172.105 79.1 173.653 78.124 174.422C77.7238 174.737 77.1627 174.715 76.6545 174.678L70.9227 174.257C72.32 178.058 74.1014 181.719 76.2311 185.164C76.4223 185.473 76.6775 185.817 77.0411 185.82C82.6568 185.871 88.9277 186.657 92.4864 191.001C93.1609 191.825 93.7142 193.015 93.1359 193.908C89.8738 189.97 84.7712 187.624 79.6577 187.712C74.5441 187.8 69.5256 190.321 66.4014 194.37C69.1589 196.216 71.3509 198.894 72.6146 201.962C72.9963 202.889 72.926 204.404 71.9241 204.383L65.9071 197.016C65.6382 196.687 65.3152 196.33 64.8903 196.317C64.5496 196.306 64.2493 196.524 63.979 196.732C63.3937 197.182 62.7864 197.659 62.4808 198.331C62.1753 199.002 62.289 199.927 62.9254 200.301C65.6379 201.894 67.8146 204.382 69.0335 207.282ZM137.632 218.811C141.496 215.588 142.756 210.28 143.794 205.357L147.596 187.314C147.637 187.121 147.684 186.917 147.822 186.777C148.005 186.592 148.292 186.572 148.552 186.564C155.483 186.355 162.862 187.015 168.445 191.128C166.167 192.258 164.176 193.96 162.706 196.034C162.294 196.616 161.949 197.492 162.48 197.968C162.679 198.147 162.956 198.21 163.223 198.229C164.554 198.324 165.769 197.493 166.742 196.579C166.952 196.382 167.157 196.179 167.364 195.975L167.364 195.975C168.113 195.233 168.867 194.488 169.818 194.052C171.031 193.497 172.716 193.653 173.386 194.807C171.222 195.909 169.44 197.742 168.399 199.935C168.128 200.507 167.904 201.167 168.123 201.759C168.343 202.352 169.206 202.7 169.631 202.231L173.811 197.617C174.013 197.394 174.293 197.149 174.576 197.252C174.729 197.308 174.829 197.452 174.916 197.589C177.131 201.065 178.012 205.113 178.896 209.177C179.414 211.557 179.933 213.943 180.722 216.224C181.354 218.052 182.575 220.105 184.509 220.106C185.577 220.107 186.523 219.449 187.369 218.796C188.273 218.098 189.173 217.366 190.077 216.63C194.327 213.171 198.675 209.633 204.028 209.21C204.872 209.143 205.955 209.329 206.153 210.152C206.268 210.63 206.01 211.111 205.754 211.531C201.775 218.044 195.806 223.179 189.213 227.023C185.837 228.992 182.135 230.682 178.227 230.712C174.32 230.742 170.182 228.744 168.706 225.126C168.404 224.388 168.22 223.609 168.036 222.831C167.823 221.931 167.61 221.031 167.217 220.197C166.204 218.048 163.958 216.536 161.586 216.404C159.327 216.279 157.25 217.285 155.177 218.289C154.449 218.642 153.721 218.994 152.987 219.297C148.109 221.309 142.373 221.128 137.632 218.811ZM111.839 179.969C110.384 181.21 108.428 181.705 106.521 181.845C103.085 182.097 99.5792 181.293 96.5969 179.569L97.8274 184.226C97.8804 184.427 97.9436 184.643 98.1103 184.767C98.2551 184.874 98.4467 184.888 98.6267 184.897L116.308 185.826C118.885 185.962 121.466 186.097 124.046 186.023C131.283 185.814 138.467 183.924 144.87 180.546C145.239 180.351 145.616 180.143 145.882 179.821C146.199 179.438 146.324 178.935 146.43 178.448C147.327 174.335 147.482 170.06 146.886 165.892C146.739 164.869 146.535 163.819 145.96 162.96C145.384 162.1 144.349 161.472 143.333 161.666C132.928 163.647 122.306 163.035 111.685 162.423C107.682 162.192 103.679 161.962 99.688 161.87C98.9754 161.854 98.2259 161.85 97.6 162.191C96.9741 162.532 96.5432 163.341 96.8647 163.977C98.6847 167.578 102.445 169.876 106.344 170.912C106.624 170.987 106.911 171.06 107.201 171.133C109.723 171.775 112.5 172.481 113.416 174.829C114.111 176.61 113.293 178.727 111.839 179.969ZM140.206 210.485C139.493 213.317 137.994 216.255 135.273 217.317C134.322 217.689 133.291 217.799 132.274 217.894C122.842 218.772 113.31 218.56 103.926 217.265C103.367 217.188 102.778 217.094 102.343 216.736C101.813 216.299 101.633 215.577 101.494 214.904C101.068 212.842 100.738 210.76 100.505 208.668C100.464 208.297 100.566 207.768 100.938 207.797C106.943 208.264 112.964 208.51 118.987 208.533C123.141 208.549 127.329 208.455 131.386 207.562C135.444 206.67 139.4 204.926 142.366 202.017C141.523 203.788 141.16 205.723 140.796 207.66C140.618 208.607 140.441 209.555 140.206 210.485ZM119.921 198.725C119.536 199.1 119.122 199.545 119.149 200.081C119.176 200.618 119.981 201.018 120.259 200.558C121.774 198.048 124.41 196.243 127.298 195.737C130.187 195.232 133.279 196.034 135.557 197.881C135.794 198.072 136.023 198.275 136.252 198.478L136.252 198.478C136.792 198.957 137.332 199.435 137.969 199.766C138.296 199.935 138.856 199.94 138.869 199.572C138.874 199.451 138.805 199.341 138.737 199.241C137.101 196.83 134.655 194.979 131.89 194.06C129.466 193.255 126.657 193.204 124.489 194.555C123.702 195.045 123.031 195.697 122.366 196.344L119.921 198.725ZM99.5603 197.354C101.65 194.976 105.029 193.923 108.167 194.338C111.305 194.753 114.175 196.521 116.26 198.902C116.627 199.322 116.988 199.925 116.69 200.397C116.44 200.792 115.844 200.82 115.435 200.596C115.077 200.4 114.822 200.07 114.571 199.745L114.506 199.661L114.461 199.603C112.615 197.255 109.599 195.877 106.616 196.018C103.633 196.158 100.76 197.815 99.1438 200.326C98.7228 199.96 98.6037 199.331 98.7304 198.788C98.8571 198.244 99.1919 197.773 99.5603 197.354ZM130.302 191.125C130.254 191.656 130.954 191.986 131.458 191.812C131.912 191.656 132.227 191.264 132.532 190.887L132.534 190.884C132.567 190.843 132.6 190.802 132.633 190.762C135.439 187.331 140.78 186.297 144.663 188.434C145.173 188.004 145.202 187.179 144.861 186.606C144.52 186.033 143.898 185.681 143.263 185.478C141.887 185.039 140.394 185.189 138.979 185.475C135.629 186.153 132.246 187.741 130.485 190.669C130.4 190.811 130.317 190.961 130.302 191.125ZM113.121 203.21C114.41 202.717 115.757 202.352 117.134 202.257C120.54 202.02 124.02 203.549 126.149 206.218C125.242 206.867 124.048 206.078 123.116 205.462L123.107 205.456C120.132 203.492 116.068 203.316 112.935 205.016C112.691 205.149 112.444 205.293 112.195 205.439C111.023 206.125 109.805 206.839 108.544 206.481C109.586 204.885 111.34 203.892 113.121 203.21ZM122.789 201.396C123.323 201.118 123.803 200.75 124.282 200.383C124.74 200.032 125.198 199.682 125.704 199.408C127.13 198.636 128.907 198.547 130.403 199.172C130.84 199.355 131.25 199.592 131.66 199.83L131.66 199.83C132.013 200.035 132.366 200.24 132.736 200.409C133.537 200.776 134.49 200.966 135.288 200.593C135.377 200.552 135.468 200.497 135.506 200.407C135.566 200.26 135.458 200.102 135.354 199.982C133.569 197.945 130.772 196.841 128.077 197.11C125.381 197.379 122.858 199.014 121.511 201.364C121.792 201.734 122.377 201.611 122.789 201.396ZM102.837 200.756C102.533 201.025 102.23 201.293 101.878 201.493C101.319 201.811 100.566 201.918 100.06 201.52C99.9033 200.679 100.752 200.025 101.491 199.594C103.314 198.531 105.273 197.432 107.38 197.541C109.066 197.628 110.605 198.482 112.061 199.336C112.419 199.546 112.787 199.766 113.031 200.101C113.276 200.436 113.368 200.919 113.139 201.265C112.908 201.616 112.421 201.719 112.013 201.624C111.619 201.532 111.279 201.295 110.947 201.065L110.908 201.038C109.73 200.22 108.445 199.466 107.021 199.3C105.742 199.152 104.41 199.512 103.387 200.293C103.197 200.438 103.017 200.597 102.837 200.756ZM111.369 193.324C111.75 193.816 112.495 193.288 112.915 192.83C114.209 191.416 116.074 190.541 117.988 190.449C119.902 190.357 121.842 191.049 123.265 192.333C123.294 192.358 123.322 192.384 123.35 192.41L123.353 192.412C123.686 192.716 124.042 193.04 124.486 193.052C124.969 193.065 125.405 192.39 125.021 192.096C122.97 190.52 120.582 189.231 118 189.061C115.418 188.891 112.636 190.049 111.44 192.344C111.28 192.652 111.157 193.05 111.369 193.324ZM134.934 192.311C134.712 192.539 134.488 192.77 134.198 192.892C133.857 193.036 133.389 192.967 133.224 192.636C133.051 192.286 133.293 191.878 133.547 191.58C136.031 188.656 140.708 187.899 143.989 189.888C144.491 190.193 145.018 190.784 144.722 191.292C144.368 191.901 143.45 191.511 142.84 191.159C140.401 189.747 137.036 190.194 135.049 192.193C135.011 192.232 134.972 192.271 134.934 192.311ZM136.011 193.08C135.871 193.198 135.73 193.33 135.671 193.504C135.505 193.99 136.095 194.444 136.607 194.404C136.977 194.374 137.307 194.194 137.637 194.013C137.763 193.945 137.889 193.876 138.017 193.815C139.149 193.282 140.509 193.409 141.658 193.905C141.715 193.929 141.772 193.955 141.829 193.981L141.908 194.017L141.982 194.052L141.983 194.052C142.327 194.212 142.67 194.372 143.043 194.428C143.532 194.502 144.103 194.34 144.326 193.898C142.379 191.484 138.391 191.092 136.011 193.08ZM106.103 192.003C105.916 192.264 105.519 192.29 105.229 192.154C104.959 192.027 104.757 191.797 104.559 191.572L104.514 191.52C103.149 189.973 101.381 188.784 99.4325 188.105C98.9265 187.928 98.2835 187.578 98.4258 187.061C99.8245 186.583 101.406 186.958 102.662 187.737C103.918 188.517 104.901 189.661 105.815 190.822C106.085 191.165 106.357 191.649 106.103 192.003ZM122.446 193.451C120.147 191.984 117.009 191.959 114.686 193.387C114.282 193.635 113.867 193.984 113.836 194.457C113.804 194.93 114.446 195.369 114.765 195.018C116.048 193.603 118.393 193.31 119.986 194.364C120.767 194.882 121.89 194.812 122.601 194.2C122.937 194.165 122.731 193.632 122.446 193.451ZM130.494 205.345C132.865 203.086 135.905 201.164 139.172 201.385C139.508 201.408 139.959 201.69 139.756 201.959L131.654 205.465C131.255 205.638 130.666 205.744 130.494 205.345ZM108.079 202.84C108.159 202.885 108.238 202.934 108.318 202.982C108.639 203.178 108.966 203.378 109.336 203.378C109.798 203.378 110.256 202.822 109.963 202.465C109.04 201.34 107.59 200.668 106.136 200.69C104.681 200.712 103.253 201.429 102.365 202.581C102.474 203 102.987 203.193 103.415 203.13C103.724 203.085 104.006 202.947 104.289 202.809C104.398 202.756 104.507 202.703 104.618 202.655C105.717 202.178 107.037 202.249 108.079 202.84ZM124.931 203.083C124.607 203.101 124.243 202.855 124.279 202.533C124.293 202.414 124.358 202.308 124.426 202.21C125.175 201.133 126.528 200.582 127.84 200.57C129.152 200.558 130.427 201.023 131.586 201.639C131.909 201.811 132.272 202.084 132.22 202.447C131.683 203.018 130.794 202.711 130.019 202.444L129.897 202.402C129.853 202.387 129.809 202.373 129.766 202.358C128.477 201.93 127.011 202.064 125.821 202.72L125.775 202.746L125.698 202.789C125.455 202.927 125.207 203.068 124.931 203.083ZM121.841 188.417C123.191 188.9 124.449 189.641 125.527 190.588C125.602 190.654 125.676 190.721 125.751 190.789C126.118 191.119 126.487 191.452 126.935 191.654C127.474 191.898 128.174 191.904 128.595 191.49C127.662 190.774 126.895 189.842 126.373 188.789C126.091 188.221 125.34 188.117 124.707 188.086L121.933 187.951C121.835 188.082 121.8 188.258 121.841 188.417ZM110.533 190.797C110.296 191.1 110.058 191.402 109.778 191.664C109.3 192.11 108.641 192.437 108.003 192.296C108.652 190.724 109.7 189.318 111.021 188.247C111.965 187.482 113.33 187.65 114.527 187.858C114.591 188.29 114.035 188.507 113.613 188.619C112.634 188.88 111.733 189.427 111.049 190.174C110.867 190.373 110.7 190.585 110.533 190.797ZM99.1408 191.123L101.714 192.799C102.077 193.036 102.54 193.278 102.917 193.063C103.266 192.865 103.32 192.352 103.137 191.994C102.955 191.635 102.608 191.396 102.274 191.171L100.18 189.761C99.5951 189.367 98.6427 189.053 98.3246 189.682C98.0504 190.224 98.6317 190.791 99.1408 191.123ZM118.401 198.318C117.985 198.517 117.525 198.165 117.197 197.84L116.126 196.777C116 196.652 115.864 196.5 115.886 196.324C115.9 196.213 115.975 196.121 116.052 196.04C117.058 194.987 118.969 195.016 119.942 196.099L118.827 197.861C118.714 198.04 118.592 198.227 118.401 198.318ZM102.19 206.242C102.888 206.486 103.711 206.559 104.326 206.149C103.4 205.084 102.315 204.158 101.117 203.411C100.778 203.199 100.395 202.994 99.9984 203.05C99.602 203.107 99.2512 203.558 99.4432 203.909C100.032 204.987 101.031 205.835 102.19 206.242ZM141.441 196.487L140.452 197.682C140.359 197.795 140.254 197.915 140.11 197.947C139.893 197.994 139.695 197.822 139.538 197.664L138.103 196.209C137.892 195.996 137.952 195.613 138.162 195.398C138.372 195.183 138.683 195.102 138.981 195.066C139.761 194.972 140.57 195.133 141.255 195.518C141.452 195.629 141.658 195.791 141.667 196.017C141.675 196.195 141.555 196.35 141.441 196.487ZM106.062 189.078C106.357 189.396 106.729 189.722 107.162 189.686C107.61 189.649 107.912 189.256 108.208 188.87C108.526 188.456 108.837 188.05 109.316 188.096C109.565 187.685 108.886 187.357 108.406 187.349L104.68 187.29C105.085 187.926 105.548 188.526 106.062 189.078ZM121.484 206.502L113.733 206.536C113.817 206.134 114.268 205.942 114.664 205.835C116.431 205.356 118.311 205.299 120.104 205.671C120.651 205.784 121.257 205.991 121.484 206.502ZM129.686 203.817L127.121 203.933C126.845 203.945 126.491 204.025 126.457 204.3C126.442 204.422 126.503 204.54 126.563 204.648C126.789 205.058 127.029 205.485 127.42 205.744C127.811 206.002 128.399 206.027 128.703 205.671C128.808 205.548 128.869 205.395 128.93 205.242C129.005 205.055 129.079 204.869 129.233 204.744C129.334 204.661 129.458 204.615 129.582 204.57C129.677 204.535 129.772 204.5 129.858 204.448C130.056 204.328 130.182 204.017 129.999 203.876C129.913 203.81 129.794 203.812 129.686 203.817ZM107.207 204.157C107.563 204.386 107.779 204.891 107.551 205.247C107.277 205.674 106.936 206.144 106.432 206.194C105.781 206.259 105.315 205.603 104.998 205.031C104.89 204.836 104.778 204.621 104.818 204.402C104.902 203.942 105.517 203.856 105.984 203.879C106.407 203.9 106.851 203.928 107.207 204.157ZM141.32 200.12C141.704 200.152 142.048 199.892 142.317 199.617C143.138 198.777 143.66 197.652 143.77 196.483C143.499 196.309 143.167 196.578 142.958 196.824L140.861 199.304C140.613 199.598 140.937 200.089 141.32 200.12ZM100.249 194.608C99.6994 194.905 98.9475 194.752 98.5577 194.265C98.1679 193.777 98.1847 193.01 98.5954 192.539C98.6524 192.474 98.7205 192.412 98.8054 192.394C98.9284 192.369 99.0478 192.443 99.1516 192.514L100.171 193.209C100.407 193.369 100.662 193.559 100.712 193.84C100.768 194.155 100.53 194.456 100.249 194.608ZM128.748 189.116C129.156 189.458 129.761 189.104 130.166 188.758L131.485 187.631C131.236 187.393 130.839 187.447 130.502 187.517L127.566 188.124L128.748 189.116ZM69.3885 163.29C69.0887 163.024 69.0119 162.588 69.0029 162.187C68.9927 161.734 69.0458 161.28 69.16 160.842L71.1061 163.376C71.2223 163.527 71.3176 163.787 71.146 163.87C70.9027 163.707 70.6036 163.66 70.3063 163.614C69.9701 163.562 69.6363 163.511 69.3885 163.29ZM144.118 184.314C144.364 184.621 144.883 184.555 145.165 184.281C145.448 184.007 145.552 183.602 145.633 183.217C145.653 183.124 145.671 183.024 145.632 182.938C145.533 182.719 145.208 182.785 144.99 182.886C144.403 183.16 143.712 183.81 144.118 184.314ZM122.094 72.2971C122.333 71.7022 122.887 71.3005 123.433 70.9651C125.081 69.9531 126.911 69.2384 128.808 68.8657C129.262 68.7765 129.803 68.733 130.118 69.0718C130.473 69.4529 130.295 70.1121 129.902 70.4528C129.551 70.7563 129.09 70.8808 128.638 71.0026L128.638 71.0027L128.638 71.0028C128.583 71.0176 128.528 71.0325 128.473 71.0476C126.956 71.4678 125.528 72.2097 124.312 73.2102C123.845 73.5948 123.291 74.0478 122.707 73.8857C122.09 73.7142 121.856 72.892 122.094 72.2971ZM87.9622 72.4361C87.5217 72.1977 87.2242 71.6025 87.4983 71.1832C87.6578 70.9393 87.955 70.8281 88.2375 70.7564C90.5253 70.1758 92.8938 71.2009 94.9631 72.3363C95.429 72.5919 95.9084 72.8702 96.2021 73.3131C96.4957 73.7559 96.5387 74.4121 96.1555 74.7802C95.5142 75.3964 94.4976 74.7626 93.7736 74.2461C92.5058 73.3416 90.9824 72.7996 89.4283 72.6999C89.3589 72.6954 89.289 72.6917 89.219 72.688C88.7841 72.6649 88.3416 72.6415 87.9622 72.4361ZM111.945 105.237L110.44 100.945C109.101 101.911 108.1 103.337 107.645 104.925C107.234 104.591 107.219 104.025 107.204 103.47C107.199 103.304 107.195 103.139 107.18 102.981C107.091 102.046 106.504 101.172 105.67 100.737C104.837 100.302 103.785 100.319 102.966 100.781C103.183 101.256 103.695 101.407 104.221 101.562C104.571 101.665 104.927 101.77 105.208 101.974C105.802 102.403 105.972 103.212 105.982 103.945C105.984 104.129 105.979 104.314 105.974 104.499V104.499C105.96 105.052 105.946 105.607 106.119 106.128C106.175 106.296 106.254 106.464 106.39 106.577C106.776 106.898 107.361 106.632 107.752 106.316C108.635 105.604 109.329 104.661 109.746 103.605C110.114 103.973 110.25 104.489 110.384 105L110.384 105C110.424 105.151 110.463 105.301 110.509 105.446C110.708 106.088 111.184 106.774 111.856 106.743C112.303 106.723 112.664 106.386 112.981 106.069L114.801 104.25C115.021 104.031 115.259 103.752 115.188 103.45C115.12 103.161 114.777 103.005 114.482 103.047C114.187 103.089 113.935 103.274 113.704 103.463C113.058 103.99 112.467 104.586 111.945 105.237ZM107.786 88.0207C107.883 87.234 107.937 86.3176 107.359 85.7751C106.281 84.763 105.336 83.6083 104.558 82.3507C104.219 81.8022 103.9 81.1614 104.062 80.537C104.306 79.5939 105.452 79.2529 106.419 79.1351C107.967 78.9467 109.533 78.9148 111.086 79.0398C111.754 79.0936 112.461 79.1939 112.972 79.6269C113.483 80.06 113.668 80.938 113.175 81.3912C110.757 83.6132 109.342 86.8863 109.379 90.1693C110.275 90.7511 111.186 91.3399 112.207 91.6546C113.228 91.9693 114.392 91.9796 115.313 91.4379C115.701 91.2099 116.026 90.8978 116.352 90.585C116.577 90.3691 116.803 90.1529 117.049 89.9638C117.653 89.5008 118.517 89.2141 119.164 89.6145L116.703 91.88C115.722 92.7829 114.505 93.754 113.207 93.4501C112.777 93.3494 112.399 93.1169 112.021 92.8836C111.795 92.7447 111.569 92.6055 111.332 92.4937C110.061 91.8956 108.57 92.1191 107.196 92.4139C107.113 92.4318 107.029 92.45 106.945 92.4682C105.649 92.7491 104.308 93.0397 103.035 92.6907C101.681 92.3191 100.493 90.9111 100.917 89.572C101.769 90.82 103.254 91.6111 104.765 91.6226C105.346 91.6271 105.944 91.516 106.425 91.1909C107.409 90.5255 107.641 89.1998 107.786 88.0207Z" fill="#00160A"/>
</g>
</g>
</g>
</svg>
